<svg width="212" height="645" viewBox="0 0 212 645" fill="none" xmlns="http://www.w3.org/2000/svg">
<path fill-rule="evenodd" clip-rule="evenodd" d="M0.727344 645C14.1005 633.077 24.2655 620.954 31.1562 609.265C58.6675 562.596 62.5028 535.651 60.4617 517.808C58.7044 502.447 52.9825 491.389 44.5658 475.124L44.5652 475.122C42.0255 470.214 39.2405 464.832 36.245 458.715C23.7646 433.227 12.6541 402.113 19.7648 357.533C26.5725 314.852 49.6449 262.545 97.7194 192.091C155.408 107.547 159.456 44.0391 143.773 0H206.323C221.134 62.2278 206.632 138.929 147.281 225.909C101.284 293.317 83.7976 337.004 79.0157 366.984C74.5366 395.066 80.8055 413.282 90.1317 432.329C91.7244 435.581 93.5852 439.12 95.589 442.93L95.5897 442.931C104.762 460.373 116.929 483.509 120.073 510.989C124.15 546.627 113.988 586.904 82.8438 639.735C81.8041 641.498 80.7257 643.254 79.6093 645H0.727344Z" fill="url(#paint0_linear_4611_7241)"/>
<defs>
<linearGradient id="paint0_linear_4611_7241" x1="160.669" y1="133.27" x2="46.2763" y2="139.189" gradientUnits="userSpaceOnUse">
<stop stop-color="#D2F38A"/>
<stop offset="1" stop-color="#385842"/>
</linearGradient>
</defs>
</svg>
