<svg width="420" height="256" viewBox="0 0 420 256" fill="none" xmlns="http://www.w3.org/2000/svg">
<path fill-rule="evenodd" clip-rule="evenodd" d="M308.816 175.71C312.632 171.205 310.474 169.17 305.594 167.892C302.256 167.017 282.985 165.929 288.268 173.525C289.609 175.452 291.48 178.166 290.701 180.702C288.096 181.07 285.481 181.379 282.862 181.635C277.619 182.147 272.355 182.443 267.088 182.562C264.754 182.614 262.42 182.626 260.086 182.613C261.736 187.183 263.13 191.915 262.232 196.699C259.811 209.594 250.288 196.326 243.939 201.442C237.64 206.517 242.021 220.374 251.227 215.829C259.672 211.66 263.395 218.324 262.972 226.508C262.853 228.827 260.883 234.444 259.177 240.588C263.666 239.657 268.156 238.742 272.733 238.368C276.759 238.038 280.843 238.169 284.781 239.134C291.148 240.694 292.213 242.907 288.399 248.398C282.883 256.34 301.293 255.823 305.237 254.561C308.502 253.516 313.019 251.667 309.561 248.123C305.416 243.875 307.281 241.211 312.388 239.544C321.44 236.588 330.437 238.296 339.455 240.193C340.047 238.489 340.648 236.799 341.166 235.121C343.387 227.928 343.923 220.557 339.01 214.307C332.662 212.569 326.917 221.391 322.056 212.633C320.275 209.425 320.286 205.389 322.298 202.285C327.362 199.855 327.522 200.624 332.936 202.028C345.114 205.185 342.565 194.244 340.812 186.419C340.529 185.155 340.407 183.892 340.377 182.63C332.882 182.594 325.388 182.238 317.915 181.659C313.293 181.299 303.279 182.246 308.816 175.71Z" stroke="#D9D9D9" stroke-linecap="round"/>
<path fill-rule="evenodd" clip-rule="evenodd" d="M99.2387 81.7617C103.74 82.5367 105.587 82.4107 110.222 80.7897C118.898 77.7547 121.154 87.9027 117.764 94.0617C113.084 102.564 105.743 90.0157 100.262 95.2617C92.7817 102.421 96.1837 111.636 99.3367 120.575C99.7247 120.495 100.112 120.415 100.499 120.336C108.449 118.711 116.769 117.166 124.807 119.136C129.33 120.245 132.786 121.659 129.625 126.592C126.576 131.35 127.067 133.621 133.062 134.996C136.615 135.811 156.03 134.753 149.561 128.121C140.964 119.308 159.277 117.767 164.893 118.015C169.728 118.228 174.462 119.156 179.187 120.148C176.079 111.343 172.901 102.307 180.262 95.2617C185.743 90.0157 193.084 102.565 197.764 94.0617C201.154 87.9027 198.898 77.7547 190.222 80.7897C185.586 82.4117 183.74 82.5367 179.239 81.7617C177.453 79.0177 176.598 75.8447 176.657 72.5797C176.733 68.3137 178.048 64.2407 179.444 60.2047C171.912 58.6217 164.231 57.1417 156.57 58.5087C153.769 59.0087 146.71 59.9847 147.031 63.9647C147.302 67.3167 151.595 68.2167 150.77 71.7757C145.699 75.4657 131.148 78.8637 127.292 71.6137C125.948 69.0867 131.675 64.9887 130.717 61.2827C126.989 59.4577 122.92 58.4877 118.784 58.2597C112.291 57.9007 105.838 59.1267 99.4067 60.4357C98.0427 64.4087 96.7727 68.4207 96.6897 72.6157C96.6257 75.8657 97.4607 79.0277 99.2387 81.7617Z" stroke="#D9D9D9" stroke-linecap="round"/>
<path fill-rule="evenodd" clip-rule="evenodd" d="M307.307 60.6966C305.666 56.1556 311.805 54.7816 310.772 50.2286C307.709 47.7126 302.878 47.0376 298.978 46.9106C295.663 46.8026 289.19 46.9606 287.659 50.5336C286.259 53.7996 291.949 56.6456 290.702 60.7016C281.336 62.0226 271.876 62.5846 262.42 62.6166C262.978 71.2326 263.246 82.8576 258.044 82.9526C253.309 83.0386 248 78.1696 243.94 81.4406C241.06 83.7606 240.406 87.0786 241.357 90.8846C242.503 95.4786 245.094 97.4206 249.793 96.7906C251.897 94.7826 257.21 92.5026 259.703 94.9836C265.682 103.527 262.056 111.944 259.16 120.516C267.672 118.732 276.171 117.053 284.762 119.141C289.295 120.243 292.803 121.634 289.627 126.591C287.336 130.166 286.01 132.811 291.114 134.459C294.798 135.648 316.41 135.14 309.562 128.121C301.564 119.923 317.083 118.006 322.769 117.995C328.313 117.984 333.735 119.03 339.144 120.162C336.039 111.357 332.878 102.329 340.263 95.2616C345.744 90.0156 353.085 102.565 357.765 94.0616C361.155 87.9026 358.899 77.7546 350.223 80.7896C345.587 82.4116 343.741 82.5366 339.24 81.7616C337.463 79.0286 336.627 75.8656 336.691 72.6156C336.774 68.4726 338.013 64.5086 339.358 60.5836C337.681 60.9346 336.009 61.2856 334.339 61.6086C325.345 63.3496 316.006 64.2256 307.307 60.6966Z" stroke="#D9D9D9" stroke-linecap="round"/>
<path fill-rule="evenodd" clip-rule="evenodd" d="M22.2318 76.6984C21.2798 81.7664 19.2058 83.8914 14.0118 82.2884C11.8438 81.6194 9.77081 80.5974 7.50381 80.2704C4.37081 79.8184 4.92181 81.5624 2.29881 82.3194C-1.06019 88.9524 2.52282 100.125 11.2268 95.8284C15.7818 93.5794 19.2498 92.9704 21.5498 98.2844C22.9018 101.409 23.2168 104.82 22.8048 108.178C22.2948 112.331 20.8628 116.245 19.4958 120.179C23.6338 121.048 27.7658 121.959 31.9548 122.483C36.1008 123.001 40.3208 123.126 44.4548 122.43C49.4788 121.584 52.5958 120.295 49.2838 115.033C47.0438 111.473 46.9378 110.678 50.2088 108.225C55.1168 106.425 60.5908 106.581 65.5938 107.892C70.4728 109.17 72.6318 111.205 68.8148 115.71C64.8428 120.399 68.8698 121.65 73.5348 122.535C82.1608 124.17 90.8708 122.318 99.3358 120.575C96.1828 111.636 92.7798 102.421 100.261 95.2624C105.742 90.0164 113.083 102.565 117.763 94.0624C121.153 87.9034 118.897 77.7554 110.221 80.7904C105.585 82.4124 103.739 82.5384 99.2378 81.7624C97.4598 79.0294 96.6248 75.8664 96.6888 72.6164C96.7718 68.4214 98.0418 64.4094 99.4058 60.4364C88.6708 62.6214 77.9978 65.0384 67.3048 60.6974C65.5858 55.9384 73.6968 53.5594 69.7188 49.2804C65.6398 47.5884 61.1588 46.7014 56.7388 46.9314C53.8628 47.0804 48.9418 47.5374 47.6568 50.5334C46.2578 53.7994 51.9458 56.6454 50.7008 60.7014C40.2598 64.8454 29.7838 62.3364 19.2568 60.1524C21.2848 65.5624 23.2988 71.0124 22.2318 76.6984Z" stroke="#D9D9D9" stroke-linecap="round"/>
<path fill-rule="evenodd" clip-rule="evenodd" d="M179.239 81.7624C183.74 82.5374 185.587 82.4114 190.222 80.7904C198.898 77.7554 201.154 87.9034 197.764 94.0624C193.084 102.564 185.743 90.0164 180.262 95.2624C172.901 102.307 176.078 111.344 179.187 120.148C182.73 120.892 186.267 121.671 189.837 122.217C193.967 122.849 198.172 123.169 202.339 122.726C207.66 122.162 213.195 121.249 209.284 115.032C207.044 111.471 206.938 110.678 210.209 108.224C214.417 106.681 219.054 106.583 223.426 107.404C227.236 108.119 232.874 109.007 230.037 113.955C228.861 116.005 227.021 116.523 227.051 119.047C227.085 121.901 231.298 122.107 233.586 122.541C242.191 124.172 250.681 122.292 259.158 120.515C262.054 111.943 265.679 103.527 259.701 94.9834C257.208 92.5024 251.895 94.7814 249.791 96.7904C245.093 97.4194 242.502 95.4774 241.355 90.8844C240.404 87.0774 241.058 83.7604 243.938 81.4404C247.999 78.1694 253.307 83.0384 258.042 82.9524C263.244 82.8574 262.976 71.2324 262.418 62.6164C261.332 62.6194 260.247 62.6204 259.161 62.6104C254.745 62.5684 227.096 62.9204 227.05 59.0484C227.006 55.2244 233.383 53.2224 229.719 49.2794C225.64 47.5874 221.159 46.7004 216.739 46.9304C213.168 47.1164 207.865 47.7234 207.228 51.9774C208.95 54.7104 213.514 59.9034 208.608 61.4384C200.411 64.0034 191.83 62.7564 183.597 61.0734C182.218 60.7914 180.832 60.4964 179.443 60.2044C178.047 64.2394 176.732 68.3134 176.656 72.5794C176.599 75.8454 177.453 79.0184 179.239 81.7624Z" stroke="#D9D9D9" stroke-linecap="round"/>
<path fill-rule="evenodd" clip-rule="evenodd" d="M387.478 65.4782C388.677 67.8492 391.467 68.7622 390.768 71.7762C388.532 73.4032 385.943 74.5072 383.245 75.0912C378.662 76.0832 371.808 76.0972 368.228 72.7222C365.042 69.7202 371.796 65.4672 370.715 61.2832C366.975 59.4682 362.899 58.5012 358.755 58.2772C352.206 57.9222 345.753 59.2452 339.355 60.5842C338.01 64.5092 336.771 68.4742 336.688 72.6162C336.624 75.8662 337.459 79.0292 339.237 81.7622C343.738 82.5372 345.585 82.4112 350.22 80.7902C358.896 77.7552 361.152 87.9032 357.762 94.0622C353.082 102.564 345.741 90.0162 340.26 95.2622C332.875 102.328 336.035 111.357 339.141 120.162C342.711 120.91 346.275 121.694 349.865 122.24C353.499 122.792 372.261 124.551 370.677 118.306C369.956 114.503 366.292 113.192 368.25 109.319C371.991 108.394 374.801 106.775 378.977 106.911C382.877 107.038 387.707 107.714 390.771 110.229C391.804 114.783 385.666 116.156 387.306 120.697C393.133 124.113 407.797 126.949 419.499 125.666V60.4832C406.342 59.1712 384.413 59.4182 387.478 65.4782Z" stroke="#D9D9D9" stroke-linecap="round"/>
<path fill-rule="evenodd" clip-rule="evenodd" d="M399.666 182.34C396.366 181.887 393.082 181.319 389.772 180.939C381.832 180.833 391.832 173.166 387.7 168.522C382.851 166.889 368.38 164.334 367.228 171.979C368.503 174.004 370.217 175.875 370.677 178.306C371.636 182.083 368.033 181.081 365.498 181.367C360.266 181.957 355.01 182.322 349.748 182.502C346.625 182.609 343.5 182.644 340.376 182.629C340.405 183.891 340.527 185.153 340.811 186.418C342.564 194.244 345.113 205.185 332.935 202.027C327.521 200.624 327.362 199.855 322.297 202.284C320.285 205.388 320.274 209.424 322.055 212.632C326.916 221.39 332.661 212.568 339.009 214.306C343.922 220.556 343.386 227.927 341.165 235.12C340.647 236.799 340.046 238.489 339.454 240.192C347.749 241.937 356.062 243.843 364.454 242.43C368.33 241.778 372.282 241.431 370.134 236.595C368.77 233.525 366.542 232.697 368.25 229.319C375.25 227.59 380.306 226.032 387.699 228.522C391.868 229.927 391.469 232.578 388.815 235.71C385.13 240.059 387.765 240.636 392.241 241.253C398.666 242.138 410.679 242.126 419.499 241V182.55C412.453 183.01 403.585 182.878 399.666 182.34Z" stroke="#D9D9D9" stroke-linecap="round"/>
<path fill-rule="evenodd" clip-rule="evenodd" d="M95.1911 22.465C90.5851 21.831 88.2281 18.844 83.9381 21.438C80.5691 23.475 80.0391 27.656 81.4351 31.298C82.4161 33.859 84.4971 36.221 87.2691 36.819C91.1481 37.654 92.9851 34.05 96.5331 34.015C104.622 33.936 103.04 48.581 101.674 53.501C101.03 55.818 100.203 58.12 99.4081 60.436C105.839 59.127 112.292 57.901 118.785 58.26C122.921 58.489 126.99 59.459 130.718 61.283C131.676 64.989 125.949 69.087 127.293 71.614C131.148 78.864 145.699 75.466 150.771 71.776C151.596 68.218 147.302 67.317 147.032 63.965C146.711 59.986 153.77 59.009 156.571 58.509C164.232 57.142 171.913 58.622 179.445 60.205C180.218 57.97 181.015 55.747 181.642 53.511C183.018 48.599 184.617 33.936 176.534 34.015C172.986 34.05 171.149 37.654 167.27 36.819C164.498 36.222 162.417 33.859 161.436 31.298C160.04 27.656 160.57 23.474 163.939 21.438C168.229 18.845 170.586 21.832 175.192 22.465C183.635 23.627 182.448 10.076 181.078 0.5H100.727C102.191 10.432 103.245 23.573 95.1911 22.465Z" stroke="#D9D9D9" stroke-linecap="round"/>
<path fill-rule="evenodd" clip-rule="evenodd" d="M261.964 19.086C259.639 25.311 254.447 22.261 249.701 20.788C238.245 17.231 237.966 38.375 249.79 36.792C253.962 32.812 259.49 32.903 261.051 38.722C262.401 43.756 262.257 49.089 261.956 54.244C261.875 55.639 262.174 58.84 262.418 62.617C271.874 62.586 281.334 62.024 290.7 60.702C291.947 56.646 286.257 53.799 287.657 50.534C289.188 46.962 295.661 46.803 298.976 46.911C302.876 47.038 307.706 47.714 310.77 50.229C311.803 54.783 305.665 56.156 307.305 60.697C316.004 64.226 325.343 63.349 334.336 61.609C336.006 61.286 337.678 60.934 339.355 60.584C340.166 58.219 341.014 55.868 341.671 53.501C343.038 48.581 344.619 33.937 336.53 34.015C332.982 34.05 331.145 37.654 327.266 36.819C324.494 36.222 322.413 33.859 321.432 31.298C320.036 27.656 320.566 23.474 323.935 21.438C328.225 18.845 330.582 21.832 335.188 22.465C344.175 23.701 342.387 8.982 340.548 0.5H260.84C261.869 6.596 263.46 15.08 261.964 19.086Z" stroke="#D9D9D9" stroke-linecap="round"/>
<path fill-rule="evenodd" clip-rule="evenodd" d="M175.189 22.465C170.584 21.831 168.226 18.844 163.936 21.438C160.567 23.475 160.037 27.656 161.433 31.298C162.414 33.859 164.495 36.221 167.267 36.819C171.146 37.654 172.983 34.05 176.531 34.015C184.614 33.936 183.015 48.599 181.639 53.511C181.012 55.748 180.215 57.97 179.442 60.205C180.832 60.497 182.217 60.792 183.596 61.074C191.828 62.758 200.409 64.004 208.607 61.439C213.513 59.903 208.949 54.71 207.227 51.978C207.864 47.724 213.166 47.117 216.738 46.931C221.159 46.701 225.639 47.588 229.718 49.28C233.382 53.223 227.005 55.225 227.049 59.049C227.095 62.921 254.744 62.57 259.16 62.611C260.246 62.621 261.331 62.62 262.417 62.617C262.173 58.841 261.874 55.639 261.955 54.244C262.256 49.088 262.399 43.755 261.05 38.722C259.489 32.903 253.961 32.812 249.789 36.792C237.965 38.375 238.244 17.231 249.7 20.788C254.446 22.262 259.638 25.311 261.963 19.086C263.459 15.08 261.868 6.596 260.841 0.5H181.074C182.445 10.077 183.633 23.627 175.189 22.465Z" stroke="#D9D9D9" stroke-linecap="round"/>
<path fill-rule="evenodd" clip-rule="evenodd" d="M340.551 0.5C342.39 8.982 344.178 23.702 335.191 22.465C330.586 21.831 328.228 18.844 323.938 21.438C320.569 23.475 320.039 27.656 321.435 31.298C322.416 33.859 324.497 36.221 327.269 36.819C331.148 37.654 332.985 34.05 336.533 34.015C344.622 33.936 343.041 48.581 341.674 53.501C341.017 55.868 340.168 58.218 339.358 60.584C345.756 59.245 352.21 57.922 358.758 58.277C362.902 58.501 366.978 59.468 370.718 61.283C371.799 65.467 365.045 69.72 368.231 72.722C371.811 76.097 378.665 76.083 383.248 75.091C385.946 74.507 388.535 73.403 390.771 71.776C391.47 68.761 388.68 67.849 387.481 65.478C384.416 59.418 406.344 59.172 419.502 60.483V0.5H340.551Z" stroke="#D9D9D9" stroke-linecap="round"/>
<path fill-rule="evenodd" clip-rule="evenodd" d="M309.562 128.121C316.41 135.141 294.797 135.648 291.114 134.459C286.01 132.812 287.336 130.167 289.627 126.591C292.803 121.634 289.295 120.242 284.762 119.141C276.171 117.053 267.672 118.732 259.16 120.516C257.485 125.471 256.055 130.477 256.864 135.591C258.718 147.291 266.466 140.207 273.868 140.026C281.995 139.828 279.529 153.368 275.702 156.7C268.86 159.554 263.422 149.067 258.259 157.879C254.752 163.864 255.849 170.511 257.96 176.758C258.607 178.673 259.371 180.627 260.088 182.612C262.422 182.626 264.756 182.613 267.09 182.561C272.358 182.442 277.621 182.146 282.864 181.634C285.483 181.379 288.097 181.069 290.703 180.701C291.482 178.165 289.611 175.451 288.27 173.524C282.987 165.928 302.258 167.017 305.596 167.891C310.476 169.169 312.634 171.204 308.818 175.709C303.281 182.245 313.295 181.298 317.917 181.656C325.39 182.235 332.884 182.591 340.379 182.627C340.206 175.128 343.737 167.668 341.861 160.152C340.632 155.228 337.519 151.98 332.801 155.448C330.395 157.218 327.347 157.466 324.841 155.754C319.612 152.183 318.722 140.194 326.96 140.051C331.101 139.979 335.164 142.758 339.718 142.715C341.532 140.034 342.479 136.924 342.458 133.688C342.432 129.461 340.795 124.842 339.144 120.16C333.735 119.028 328.313 117.982 322.769 117.993C317.082 118.006 301.564 119.923 309.562 128.121Z" stroke="#D9D9D9" stroke-linecap="round"/>
<path fill-rule="evenodd" clip-rule="evenodd" d="M99.7176 142.717C95.1636 142.76 91.1005 139.981 86.9605 140.053C78.7215 140.196 79.6125 152.184 84.8405 155.756C87.3455 157.468 90.3936 157.219 92.7996 155.45C97.0976 152.29 100.053 154.655 101.769 159.068C104.464 165.995 101.832 173.293 99.5725 179.932C99.5445 180.014 99.5166 180.097 99.4896 180.178C102.256 180.76 105.019 181.361 107.788 181.848C111.909 182.574 116.099 183.07 120.29 182.872C124.557 182.67 132.808 182.61 130.135 176.596C128.79 173.57 125.459 171.257 129.332 168.856C132.722 166.756 137.324 166.639 141.215 167.075C144.539 167.447 150.737 167.897 150.975 172.018C150.152 174.029 148.977 175.892 147.225 177.225C146.353 181.669 149.048 180.886 152.626 181.207C161.853 182.036 171.113 182.576 180.378 182.619C180.208 175.124 183.736 167.667 181.86 160.154C180.631 155.231 177.518 151.982 172.8 155.45C170.394 157.22 167.346 157.468 164.84 155.756C159.611 152.185 158.721 140.196 166.959 140.053C171.1 139.981 175.163 142.76 179.717 142.717C181.542 140.034 182.503 136.92 182.491 133.675C182.475 129.455 180.841 124.834 179.186 120.148C174.461 119.156 169.727 118.228 164.892 118.015C159.276 117.768 140.963 119.308 149.56 128.121C156.029 134.753 136.614 135.811 133.061 134.996C127.067 133.621 126.576 131.35 129.624 126.592C132.784 121.66 129.329 120.245 124.806 119.136C116.768 117.166 108.448 118.711 100.498 120.336C100.112 120.415 99.7235 120.495 99.3355 120.575C100.938 125.115 102.476 129.584 102.49 133.676C102.504 136.919 101.543 140.034 99.7176 142.717Z" stroke="#D9D9D9" stroke-linecap="round"/>
<path fill-rule="evenodd" clip-rule="evenodd" d="M233.586 122.542C231.298 122.108 227.085 121.901 227.051 119.048C227.022 116.524 228.862 116.006 230.037 113.956C232.874 109.007 227.235 108.12 223.426 107.405C219.054 106.584 214.417 106.682 210.209 108.225C206.938 110.679 207.044 111.473 209.284 115.033C213.195 121.25 207.66 122.162 202.339 122.727C198.172 123.169 193.967 122.85 189.837 122.218C186.267 121.672 182.73 120.893 179.187 120.149C180.841 124.836 182.476 129.457 182.492 133.676C182.504 136.92 181.543 140.035 179.718 142.718C175.164 142.761 171.101 139.982 166.96 140.054C158.722 140.197 159.612 152.185 164.841 155.757C167.347 157.469 170.395 157.22 172.801 155.451C177.519 151.983 180.631 155.232 181.861 160.155C183.737 167.668 180.209 175.125 180.379 182.62C181.736 182.626 183.093 182.623 184.45 182.607C189.721 182.547 194.991 182.315 200.244 181.874C202.866 181.653 205.483 181.381 208.095 181.052C212.132 180.543 211.084 177.892 209.286 175.034C207.046 171.473 206.94 170.68 210.211 168.226C214.419 166.683 219.056 166.585 223.428 167.406C227.238 168.121 232.876 169.009 230.039 173.957C228.863 176.007 227.023 176.525 227.053 179.049C227.089 182.071 232.897 181.237 235.285 181.437C243.534 182.126 251.809 182.564 260.088 182.612C259.371 180.627 258.608 178.673 257.96 176.758C255.849 170.511 254.752 163.864 258.259 157.879C263.422 149.067 268.861 159.555 275.702 156.7C279.529 153.368 281.995 139.828 273.868 140.026C266.466 140.207 258.718 147.291 256.864 135.591C256.054 130.478 257.485 125.471 259.16 120.516C250.681 122.293 242.191 124.174 233.586 122.542Z" stroke="#D9D9D9" stroke-linecap="round"/>
<path fill-rule="evenodd" clip-rule="evenodd" d="M387.307 120.697C385.666 116.156 391.805 114.782 390.772 110.229C387.709 107.713 382.878 107.038 378.978 106.911C374.802 106.774 371.993 108.394 368.251 109.319C366.293 113.192 369.957 114.503 370.678 118.306C372.263 124.551 353.5 122.792 349.866 122.24C346.276 121.695 342.713 120.91 339.142 120.162C340.793 124.845 342.43 129.464 342.456 133.69C342.477 136.926 341.53 140.036 339.716 142.717C335.162 142.76 331.099 139.981 326.958 140.053C318.72 140.196 319.61 152.184 324.839 155.756C327.345 157.468 330.393 157.219 332.799 155.45C337.517 151.982 340.629 155.23 341.859 160.154C343.735 167.67 340.204 175.13 340.377 182.629C343.501 182.644 346.626 182.609 349.749 182.502C355.011 182.322 360.267 181.958 365.499 181.367C368.034 181.081 371.637 182.083 370.678 178.306C370.218 175.875 368.504 174.004 367.229 171.979C368.38 164.334 382.852 166.889 387.701 168.522C391.833 173.166 381.833 180.833 389.773 180.939C393.083 181.318 396.367 181.887 399.667 182.34C403.586 182.878 412.454 183.01 419.501 182.55V125.666C407.798 126.949 393.134 124.113 387.307 120.697Z" stroke="#D9D9D9" stroke-linecap="round"/>
</svg>
