<svg width="358" height="30" viewBox="0 0 358 30" fill="none" xmlns="http://www.w3.org/2000/svg">
<path d="M339.565 22.6233C338.957 22.6233 338.453 22.3433 338.053 21.7833C337.669 21.2073 337.477 20.4633 337.477 19.5513C337.477 18.7033 337.685 17.8633 338.101 17.0313C338.533 16.1993 339.101 15.3993 339.805 14.6313C340.509 13.8633 341.277 13.1593 342.109 12.5193C342.941 11.8633 343.773 11.2953 344.605 10.8153C345.453 10.3353 346.229 9.9593 346.933 9.6873C347.637 9.4153 348.197 9.2793 348.613 9.2793C348.837 9.2793 349.021 9.3273 349.165 9.4233C349.309 9.5033 349.381 9.6553 349.381 9.8793C349.381 10.0233 349.325 10.1593 349.213 10.2873C349.229 10.2873 349.245 10.2873 349.261 10.2873C349.613 10.2873 349.789 10.4953 349.789 10.9113C349.789 11.0553 349.733 11.3513 349.621 11.7993C349.509 12.2313 349.381 12.7753 349.237 13.4313C349.093 14.0873 348.965 14.8153 348.853 15.6153C348.741 16.3993 348.685 17.1993 348.685 18.0153C348.685 18.7033 348.949 19.0473 349.477 19.0473C350.069 19.0473 350.669 18.9113 351.277 18.6393C351.885 18.3673 352.477 18.0393 353.053 17.6553C353.629 17.2553 354.157 16.8633 354.637 16.4793C355.117 16.0793 355.525 15.7433 355.861 15.4713C356.197 15.1993 356.437 15.0633 356.581 15.0633C356.709 15.0633 356.821 15.1033 356.917 15.1833C357.013 15.2633 357.061 15.3913 357.061 15.5673C357.061 15.7273 356.901 16.0153 356.581 16.4313C356.261 16.8473 355.837 17.3193 355.309 17.8473C354.781 18.3753 354.189 18.8873 353.533 19.3833C352.877 19.8793 352.205 20.2873 351.517 20.6073C350.829 20.9273 350.173 21.0873 349.549 21.0873C349.069 21.0873 348.629 20.9433 348.229 20.6553C347.845 20.3513 347.533 19.8393 347.293 19.1193C347.069 18.3993 346.957 17.4073 346.957 16.1433V15.5433C346.173 16.8393 345.349 18.0233 344.485 19.0953C343.637 20.1673 342.789 21.0233 341.941 21.6633C341.109 22.3033 340.317 22.6233 339.565 22.6233ZM348.157 11.0073C348.077 11.0393 347.965 11.0873 347.821 11.1513C347.085 11.4873 346.317 11.9033 345.517 12.3993C344.733 12.8953 343.965 13.4473 343.213 14.0553C342.477 14.6633 341.813 15.2953 341.221 15.9513C340.629 16.6073 340.157 17.2713 339.805 17.9433C339.453 18.6153 339.277 19.2713 339.277 19.9113C339.277 20.1193 339.317 20.2793 339.397 20.3913C339.493 20.5033 339.653 20.5593 339.877 20.5593C340.197 20.5593 340.613 20.3593 341.125 19.9593C341.637 19.5433 342.197 18.9993 342.805 18.3273C343.429 17.6553 344.053 16.9113 344.677 16.0953C345.301 15.2793 345.893 14.4553 346.453 13.6233C347.029 12.7913 347.525 12.0233 347.941 11.3193C348.005 11.2073 348.077 11.1033 348.157 11.0073Z" fill="black"/>
<path d="M330.426 23.2719C329.386 23.2719 328.426 23.0239 327.546 22.5279C326.682 22.0319 325.898 21.3919 325.194 20.6079C324.506 19.8239 323.89 18.9839 323.346 18.0879C322.818 17.1759 322.362 16.3199 321.978 15.5199C321.706 16.8159 321.49 17.8639 321.33 18.6639C321.186 19.4639 321.066 20.0719 320.97 20.4879C320.89 20.9039 320.81 21.1839 320.73 21.3279C320.65 21.4719 320.546 21.5439 320.418 21.5439C320.066 21.5439 319.73 21.3519 319.41 20.9679C319.09 20.5839 318.93 20.0879 318.93 19.4799C318.93 18.8399 319.042 17.9919 319.266 16.9359C319.49 15.8639 319.786 14.6799 320.154 13.3839C320.538 12.0719 320.978 10.7199 321.474 9.32786C321.97 7.91986 322.482 6.55186 323.01 5.22386C323.554 3.87986 324.098 2.65586 324.642 1.55186C324.914 1.00786 325.146 0.655859 325.338 0.495859C325.546 0.335859 325.794 0.255859 326.082 0.255859C326.546 0.255859 326.778 0.471859 326.778 0.903858C326.778 1.06386 326.73 1.23986 326.634 1.43186C326.554 1.62386 326.466 1.83986 326.37 2.07986C326.082 2.78386 325.762 3.57586 325.41 4.45586C325.074 5.33586 324.73 6.25586 324.378 7.21586C324.042 8.17586 323.722 9.12786 323.418 10.0719C323.114 11.0159 322.85 11.8879 322.626 12.6879C323.314 12.2079 324.122 11.7279 325.05 11.2479C325.978 10.7679 326.938 10.3359 327.93 9.95186C328.922 9.55186 329.858 9.23186 330.738 8.99186C331.618 8.75186 332.346 8.63186 332.922 8.63186C333.226 8.63186 333.458 8.72786 333.618 8.91986C333.794 9.09586 333.882 9.29586 333.882 9.51986C333.882 9.69586 333.826 9.87186 333.714 10.0479C333.618 10.2079 333.41 10.3519 333.09 10.4799C332.034 10.8479 330.986 11.2239 329.946 11.6079C328.906 11.9759 327.818 12.3759 326.682 12.8079C325.562 13.2239 324.338 13.7199 323.01 14.2959C323.426 14.9999 323.914 15.7599 324.474 16.5759C325.034 17.3759 325.634 18.1359 326.274 18.8559C326.914 19.5599 327.57 20.1439 328.242 20.6079C328.914 21.0559 329.586 21.2799 330.258 21.2799C331.138 21.2799 331.986 21.0959 332.802 20.7279C333.618 20.3599 334.37 19.9119 335.058 19.3839C335.762 18.8559 336.378 18.3439 336.906 17.8479C337.434 17.3359 337.85 16.9359 338.154 16.6479C338.314 16.5039 338.458 16.4079 338.586 16.3599C338.73 16.2959 338.858 16.2639 338.97 16.2639C339.194 16.2639 339.346 16.3839 339.426 16.6239C339.522 16.8479 339.442 17.0959 339.186 17.3679C338.994 17.5919 338.698 17.9359 338.298 18.3999C337.898 18.8639 337.41 19.3759 336.834 19.9359C336.274 20.4799 335.65 21.0079 334.962 21.5199C334.29 22.0319 333.562 22.4479 332.778 22.7679C332.01 23.1039 331.226 23.2719 330.426 23.2719Z" fill="black"/>
<path d="M315.109 11.6554C315.109 12.1674 314.949 12.6714 314.629 13.1674C314.309 13.6474 313.885 14.1114 313.357 14.5594C312.829 14.9914 312.245 15.3994 311.605 15.7834C310.965 16.1674 310.325 16.5034 309.685 16.7914C309.045 17.0794 308.461 17.3114 307.933 17.4874C307.805 18.1114 307.741 18.6634 307.741 19.1434C307.741 19.4474 307.813 19.6634 307.957 19.7914C308.101 19.9194 308.325 19.9834 308.629 19.9834C309.301 19.9834 310.013 19.8634 310.765 19.6234C311.517 19.3834 312.285 19.0714 313.069 18.6874C313.853 18.3034 314.605 17.8954 315.325 17.4634C316.045 17.0314 316.701 16.6234 317.293 16.2394C317.901 15.8554 318.405 15.5434 318.805 15.3034C319.205 15.0634 319.469 14.9434 319.597 14.9434C319.789 14.9434 319.933 15.0074 320.029 15.1354C320.141 15.2474 320.197 15.3834 320.197 15.5434C320.197 15.6714 319.997 15.9194 319.597 16.2874C319.213 16.6554 318.693 17.0874 318.037 17.5834C317.381 18.0634 316.645 18.5594 315.829 19.0714C315.013 19.5834 314.165 20.0634 313.285 20.5114C312.421 20.9594 311.581 21.3194 310.765 21.5914C309.965 21.8634 309.245 21.9994 308.605 21.9994C307.773 21.9994 307.125 21.6874 306.661 21.0634C306.197 20.4394 305.965 19.4714 305.965 18.1594C305.965 17.2794 306.077 16.3914 306.301 15.4954C306.541 14.5994 306.861 13.7434 307.261 12.9274C307.677 12.0954 308.133 11.3594 308.629 10.7194C309.141 10.0634 309.677 9.55142 310.237 9.18342C310.797 8.79942 311.341 8.60742 311.869 8.60742C312.877 8.60742 313.669 8.88742 314.245 9.44742C314.821 10.0074 315.109 10.7434 315.109 11.6554ZM308.437 15.6394C308.933 15.3354 309.445 15.0154 309.973 14.6794C310.501 14.3434 310.989 13.9994 311.437 13.6474C311.885 13.2954 312.245 12.9274 312.517 12.5434C312.805 12.1434 312.949 11.7354 312.949 11.3194C312.949 10.7274 312.629 10.4314 311.989 10.4314C311.589 10.4314 311.165 10.6874 310.717 11.1994C310.285 11.6954 309.869 12.3434 309.469 13.1434C309.069 13.9434 308.725 14.7754 308.437 15.6394Z" fill="black"/>
<path d="M286.129 21.736C285.905 21.736 285.697 21.672 285.505 21.544C285.329 21.416 285.193 21.16 285.097 20.776C285.001 20.376 284.953 19.792 284.953 19.024C284.953 17.424 285.105 15.84 285.409 14.272C285.713 12.704 286.145 11.232 286.705 9.85595C287.265 8.46395 287.929 7.23995 288.697 6.18395C289.481 5.11195 290.345 4.27195 291.289 3.66395C292.249 3.05595 293.265 2.75195 294.337 2.75195C295.505 2.75195 296.425 3.11195 297.097 3.83195C297.769 4.53595 298.105 5.54395 298.105 6.85595C298.105 8.07195 297.761 9.07995 297.073 9.87995C296.401 10.68 295.465 11.08 294.265 11.08C294.057 11.08 293.833 11.064 293.593 11.032C293.353 10.984 293.105 10.92 292.849 10.84C293.825 12.472 294.801 13.888 295.777 15.088C296.753 16.288 297.745 17.368 298.753 18.328C299.777 19.272 300.817 20.184 301.873 21.064C302.033 21.208 302.153 21.352 302.233 21.496C302.313 21.624 302.353 21.776 302.353 21.952C302.353 22.224 302.289 22.424 302.161 22.552C302.049 22.68 301.809 22.744 301.441 22.744C301.041 22.744 300.545 22.568 299.953 22.216C299.377 21.864 298.745 21.384 298.057 20.776C297.369 20.168 296.673 19.48 295.969 18.712C295.265 17.944 294.585 17.144 293.929 16.312C293.289 15.464 292.713 14.64 292.201 13.84C291.689 13.024 291.281 12.272 290.977 11.584C290.689 10.896 290.545 10.312 290.545 9.83195C290.545 9.51195 290.625 9.26395 290.785 9.08795C290.945 8.89595 291.161 8.79995 291.433 8.79995C291.785 8.79995 292.105 8.84795 292.393 8.94395C292.697 9.03995 293.017 9.08795 293.353 9.08795C294.233 9.08795 294.929 8.86395 295.441 8.41595C295.969 7.95195 296.233 7.19195 296.233 6.13595C296.233 5.20795 295.609 4.74395 294.361 4.74395C293.497 4.74395 292.665 5.08795 291.865 5.77595C291.065 6.44795 290.329 7.41595 289.657 8.67995C289.001 9.94395 288.457 11.464 288.025 13.24C287.593 15 287.313 16.968 287.185 19.144C287.153 19.896 287.081 20.456 286.969 20.824C286.873 21.192 286.753 21.44 286.609 21.568C286.481 21.68 286.321 21.736 286.129 21.736Z" fill="black"/>
<path d="M265.66 9.92805C266.092 8.88805 266.5 7.81605 266.884 6.71205C267.284 5.60805 267.644 4.48005 267.964 3.32805C268.06 3.00805 268.204 2.75205 268.396 2.56005C268.604 2.35205 268.844 2.24805 269.116 2.24805C269.308 2.24805 269.468 2.32005 269.596 2.46405C269.74 2.60805 269.812 2.80005 269.812 3.04005C269.812 3.34405 269.692 3.87205 269.452 4.62405C269.228 5.37605 268.94 6.32805 268.588 7.48005C268.252 8.63205 267.908 9.96005 267.556 11.464C267.22 12.952 266.932 14.6 266.692 16.408C266.468 18.216 266.356 20.144 266.356 22.192C266.356 22.64 266.26 23.008 266.068 23.296C265.876 23.6 265.644 23.752 265.372 23.752C265.212 23.752 265.06 23.712 264.916 23.632C264.772 23.552 264.644 23.36 264.532 23.056C264.436 22.768 264.356 22.312 264.292 21.688C264.228 21.048 264.196 20.184 264.196 19.096C264.196 18.264 264.244 17.36 264.34 16.384C263.604 17.712 262.804 18.872 261.94 19.864C261.092 20.84 260.268 21.592 259.468 22.12C258.684 22.648 258.012 22.912 257.452 22.912C256.764 22.912 256.204 22.68 255.772 22.216C255.356 21.768 255.148 21.096 255.148 20.2C255.148 19.416 255.332 18.608 255.7 17.776C256.068 16.944 256.556 16.128 257.164 15.328C257.772 14.512 258.444 13.744 259.18 13.024C259.916 12.304 260.652 11.672 261.388 11.128C262.14 10.568 262.836 10.136 263.476 9.83205C264.116 9.51205 264.636 9.35205 265.036 9.35205C265.196 9.35205 265.34 9.40805 265.468 9.52005C265.596 9.63205 265.66 9.76805 265.66 9.92805ZM265.348 10.672C265.236 10.784 265.1 10.896 264.94 11.008C264.78 11.12 264.604 11.24 264.412 11.368C263.708 11.864 262.932 12.44 262.084 13.096C261.252 13.736 260.452 14.44 259.684 15.208C258.932 15.96 258.316 16.752 257.836 17.584C257.356 18.416 257.116 19.272 257.116 20.152C257.116 20.536 257.308 20.728 257.692 20.728C258.22 20.728 258.796 20.48 259.42 19.984C260.06 19.472 260.716 18.768 261.388 17.872C262.06 16.96 262.732 15.896 263.404 14.68C264.076 13.448 264.724 12.112 265.348 10.672Z" fill="black"/>
<path d="M221.838 21.5446C221.23 21.5446 220.726 21.2646 220.326 20.7046C219.942 20.1286 219.75 19.3846 219.75 18.4726C219.75 17.6726 219.95 16.9046 220.35 16.1686C220.75 15.4166 221.278 14.6966 221.934 14.0086C222.606 13.3206 223.35 12.6886 224.166 12.1126C224.982 11.5206 225.806 10.9846 226.638 10.5046C227.486 10.0246 228.286 9.61661 229.038 9.28061C229.806 8.94461 230.462 8.68861 231.006 8.51261C231.55 8.32061 231.926 8.22461 232.134 8.22461C232.486 8.22461 232.662 8.41661 232.662 8.80061C232.662 9.13661 232.526 9.43261 232.254 9.68861C231.998 9.94461 231.686 10.1606 231.318 10.3366C230.646 10.6726 229.878 11.0726 229.014 11.5366C228.166 11.9846 227.302 12.4886 226.422 13.0486C225.558 13.5926 224.75 14.1766 223.998 14.8006C223.262 15.4246 222.67 16.0806 222.222 16.7686C221.774 17.4406 221.55 18.1286 221.55 18.8326C221.55 19.0406 221.59 19.2006 221.67 19.3126C221.766 19.4246 221.926 19.4806 222.15 19.4806C222.438 19.4806 222.806 19.3446 223.254 19.0726C223.718 18.7846 224.222 18.4086 224.766 17.9446C225.326 17.4646 225.878 16.9366 226.422 16.3606C226.982 15.7846 227.502 15.2006 227.982 14.6086C228.462 14.0006 228.854 13.4326 229.158 12.9046C229.334 12.6166 229.534 12.3766 229.758 12.1846C229.982 11.9766 230.222 11.8726 230.478 11.8726C230.83 11.8726 231.006 12.0806 231.006 12.4966C231.006 12.6246 230.958 12.9526 230.862 13.4806C230.782 14.0086 230.694 14.6486 230.598 15.4006C230.502 16.1366 230.454 16.9126 230.454 17.7286C230.454 19.4726 230.87 20.3446 231.702 20.3446C232.166 20.3446 232.646 20.1686 233.142 19.8166C233.654 19.4646 234.15 19.0166 234.63 18.4726C235.126 17.9126 235.582 17.3206 235.998 16.6966C236.414 16.0726 236.766 15.4806 237.054 14.9206C237.342 14.3606 237.542 13.9126 237.654 13.5766C237.91 11.7846 238.27 10.4966 238.734 9.71261C239.214 8.92861 239.702 8.53661 240.198 8.53661C240.518 8.53661 240.774 8.62461 240.966 8.80061C241.158 8.96061 241.254 9.32061 241.254 9.88061C241.254 10.2646 241.102 10.8406 240.798 11.6086C240.494 12.3766 240.086 13.2166 239.574 14.1286C239.43 14.9446 239.35 15.7846 239.334 16.6486C239.318 17.5126 239.406 18.3046 239.598 19.0246C240.014 18.8166 240.43 18.4406 240.846 17.8966C241.262 17.3366 241.686 16.6886 242.118 15.9526C242.55 15.2166 242.974 14.4566 243.39 13.6726C243.822 12.8886 244.246 12.1686 244.662 11.5126C245.094 10.8406 245.51 10.2966 245.91 9.88061C246.326 9.46461 246.734 9.25661 247.134 9.25661C247.646 9.25661 248.07 9.41661 248.406 9.73661C248.742 10.0406 248.998 10.5846 249.174 11.3686C249.35 12.1366 249.438 13.2246 249.438 14.6326C249.438 15.3846 249.51 16.0886 249.654 16.7446C249.814 17.4006 250.062 17.9286 250.398 18.3286C250.75 18.7126 251.198 18.9046 251.742 18.9046C252.558 18.9046 253.286 18.7606 253.926 18.4726C254.566 18.1686 255.118 17.8326 255.582 17.4646C256.062 17.0806 256.462 16.7446 256.782 16.4566C257.102 16.1526 257.35 16.0006 257.526 16.0006C257.894 16.0006 258.078 16.1926 258.078 16.5766C258.078 16.7366 257.958 16.9926 257.718 17.3446C257.494 17.6806 257.174 18.0646 256.758 18.4966C256.358 18.9126 255.894 19.3206 255.366 19.7206C254.854 20.1046 254.302 20.4246 253.71 20.6806C253.134 20.9366 252.55 21.0646 251.958 21.0646C250.854 21.0646 249.95 20.8486 249.246 20.4166C248.558 19.9846 248.046 19.2726 247.71 18.2806C247.39 17.2886 247.23 15.9606 247.23 14.2966C247.23 13.3846 247.198 12.7206 247.134 12.3046C247.07 11.8726 246.91 11.5846 246.654 11.4406C246.462 11.7766 246.206 12.2566 245.886 12.8806C245.582 13.4886 245.23 14.1686 244.83 14.9206C244.446 15.6726 244.03 16.4326 243.582 17.2006C243.134 17.9526 242.678 18.6486 242.214 19.2886C241.75 19.9126 241.286 20.4246 240.822 20.8246C240.358 21.2086 239.918 21.4006 239.502 21.4006C239.23 21.4006 238.95 21.2566 238.662 20.9686C238.374 20.6646 238.134 20.2726 237.942 19.7926C237.75 19.2966 237.654 18.7686 237.654 18.2086C237.654 17.8406 237.662 17.4966 237.678 17.1766C237.022 18.1046 236.334 18.9686 235.614 19.7686C234.894 20.5526 234.174 21.1846 233.454 21.6646C232.734 22.1446 232.062 22.3846 231.438 22.3846C230.942 22.3846 230.478 22.2086 230.046 21.8566C229.614 21.4886 229.262 20.8726 228.99 20.0086C228.734 19.1286 228.59 17.9366 228.558 16.4326C227.854 17.4246 227.11 18.3046 226.326 19.0726C225.542 19.8406 224.766 20.4486 223.998 20.8966C223.23 21.3286 222.51 21.5446 221.838 21.5446Z" fill="black"/>
<path d="M198.384 29.5612C197.888 29.6892 197.56 29.6812 197.4 29.5372C197.24 29.3932 197.16 29.2332 197.16 29.0572C197.16 28.9292 197.2 28.8012 197.28 28.6732C197.36 28.5612 197.512 28.4332 197.736 28.2892C198.536 27.7932 199.184 27.0732 199.68 26.1292C200.16 25.2012 200.544 24.1372 200.832 22.9372C201.12 21.7532 201.344 20.5452 201.504 19.3132C201.552 18.9932 201.64 18.7692 201.768 18.6412C201.896 18.5132 202.04 18.4492 202.2 18.4492C202.6 18.4492 202.952 18.6172 203.256 18.9532C203.576 19.2732 203.736 19.7692 203.736 20.4412C203.736 21.5612 203.568 22.6332 203.232 23.6572C202.896 24.6812 202.456 25.6092 201.912 26.4412C201.368 27.2732 200.784 27.9612 200.16 28.5052C199.536 29.0492 198.944 29.4012 198.384 29.5612Z" fill="black"/>
<path d="M196.304 11.6554C196.304 12.1674 196.144 12.6714 195.824 13.1674C195.504 13.6474 195.08 14.1114 194.552 14.5594C194.024 14.9914 193.44 15.3994 192.8 15.7834C192.16 16.1674 191.52 16.5034 190.88 16.7914C190.24 17.0794 189.656 17.3114 189.128 17.4874C189 18.1114 188.936 18.6634 188.936 19.1434C188.936 19.4474 189.008 19.6634 189.152 19.7914C189.296 19.9194 189.52 19.9834 189.824 19.9834C190.496 19.9834 191.208 19.8634 191.96 19.6234C192.712 19.3834 193.48 19.0714 194.264 18.6874C195.048 18.3034 195.8 17.8954 196.52 17.4634C197.24 17.0314 197.896 16.6234 198.488 16.2394C199.096 15.8554 199.6 15.5434 200 15.3034C200.4 15.0634 200.664 14.9434 200.792 14.9434C200.984 14.9434 201.128 15.0074 201.224 15.1354C201.336 15.2474 201.392 15.3834 201.392 15.5434C201.392 15.6714 201.192 15.9194 200.792 16.2874C200.408 16.6554 199.888 17.0874 199.232 17.5834C198.576 18.0634 197.84 18.5594 197.024 19.0714C196.208 19.5834 195.36 20.0634 194.48 20.5114C193.616 20.9594 192.776 21.3194 191.96 21.5914C191.16 21.8634 190.44 21.9994 189.8 21.9994C188.968 21.9994 188.32 21.6874 187.856 21.0634C187.392 20.4394 187.16 19.4714 187.16 18.1594C187.16 17.2794 187.272 16.3914 187.496 15.4954C187.736 14.5994 188.056 13.7434 188.456 12.9274C188.872 12.0954 189.328 11.3594 189.824 10.7194C190.336 10.0634 190.872 9.55142 191.432 9.18342C191.992 8.79942 192.536 8.60742 193.064 8.60742C194.072 8.60742 194.864 8.88742 195.44 9.44742C196.016 10.0074 196.304 10.7434 196.304 11.6554ZM189.632 15.6394C190.128 15.3354 190.64 15.0154 191.168 14.6794C191.696 14.3434 192.184 13.9994 192.632 13.6474C193.08 13.2954 193.44 12.9274 193.712 12.5434C194 12.1434 194.144 11.7354 194.144 11.3194C194.144 10.7274 193.824 10.4314 193.184 10.4314C192.784 10.4314 192.36 10.6874 191.912 11.1994C191.48 11.6954 191.064 12.3434 190.664 13.1434C190.264 13.9434 189.92 14.7754 189.632 15.6394Z" fill="black"/>
<path d="M179.207 23.2719C178.167 23.2719 177.207 23.0239 176.327 22.5279C175.463 22.0319 174.679 21.3919 173.975 20.6079C173.287 19.8239 172.671 18.9839 172.127 18.0879C171.599 17.1759 171.143 16.3199 170.759 15.5199C170.487 16.8159 170.271 17.8639 170.111 18.6639C169.967 19.4639 169.847 20.0719 169.751 20.4879C169.671 20.9039 169.591 21.1839 169.511 21.3279C169.431 21.4719 169.327 21.5439 169.199 21.5439C168.847 21.5439 168.511 21.3519 168.191 20.9679C167.871 20.5839 167.711 20.0879 167.711 19.4799C167.711 18.8399 167.823 17.9919 168.047 16.9359C168.271 15.8639 168.567 14.6799 168.935 13.3839C169.319 12.0719 169.759 10.7199 170.255 9.32786C170.751 7.91986 171.263 6.55186 171.791 5.22386C172.335 3.87986 172.879 2.65586 173.423 1.55186C173.695 1.00786 173.927 0.655859 174.119 0.495859C174.327 0.335859 174.575 0.255859 174.863 0.255859C175.327 0.255859 175.559 0.471859 175.559 0.903858C175.559 1.06386 175.511 1.23986 175.415 1.43186C175.335 1.62386 175.247 1.83986 175.151 2.07986C174.863 2.78386 174.543 3.57586 174.191 4.45586C173.855 5.33586 173.511 6.25586 173.159 7.21586C172.823 8.17586 172.503 9.12786 172.199 10.0719C171.895 11.0159 171.631 11.8879 171.407 12.6879C172.095 12.2079 172.903 11.7279 173.831 11.2479C174.759 10.7679 175.719 10.3359 176.711 9.95186C177.703 9.55186 178.639 9.23186 179.519 8.99186C180.399 8.75186 181.127 8.63186 181.703 8.63186C182.007 8.63186 182.239 8.72786 182.399 8.91986C182.575 9.09586 182.663 9.29586 182.663 9.51986C182.663 9.69586 182.607 9.87186 182.495 10.0479C182.399 10.2079 182.191 10.3519 181.871 10.4799C180.815 10.8479 179.767 11.2239 178.727 11.6079C177.687 11.9759 176.599 12.3759 175.463 12.8079C174.343 13.2239 173.119 13.7199 171.791 14.2959C172.207 14.9999 172.695 15.7599 173.255 16.5759C173.815 17.3759 174.415 18.1359 175.055 18.8559C175.695 19.5599 176.351 20.1439 177.023 20.6079C177.695 21.0559 178.367 21.2799 179.039 21.2799C179.919 21.2799 180.767 21.0959 181.583 20.7279C182.399 20.3599 183.151 19.9119 183.839 19.3839C184.543 18.8559 185.159 18.3439 185.687 17.8479C186.215 17.3359 186.631 16.9359 186.935 16.6479C187.095 16.5039 187.239 16.4079 187.367 16.3599C187.511 16.2959 187.639 16.2639 187.751 16.2639C187.975 16.2639 188.127 16.3839 188.207 16.6239C188.303 16.8479 188.223 17.0959 187.967 17.3679C187.775 17.5919 187.479 17.9359 187.079 18.3999C186.679 18.8639 186.191 19.3759 185.615 19.9359C185.055 20.4799 184.431 21.0079 183.743 21.5199C183.071 22.0319 182.343 22.4479 181.559 22.7679C180.791 23.1039 180.007 23.2719 179.207 23.2719Z" fill="black"/>
<path d="M151.525 22.6233C150.917 22.6233 150.414 22.3433 150.014 21.7833C149.63 21.2073 149.438 20.4633 149.438 19.5513C149.438 18.7033 149.645 17.8633 150.061 17.0313C150.493 16.1993 151.062 15.3993 151.766 14.6313C152.47 13.8633 153.238 13.1593 154.07 12.5193C154.902 11.8633 155.733 11.2953 156.565 10.8153C157.413 10.3353 158.189 9.9593 158.893 9.6873C159.597 9.4153 160.158 9.2793 160.574 9.2793C160.798 9.2793 160.982 9.3273 161.126 9.4233C161.27 9.5033 161.341 9.6553 161.341 9.8793C161.341 10.0233 161.285 10.1593 161.173 10.2873C161.189 10.2873 161.205 10.2873 161.221 10.2873C161.573 10.2873 161.749 10.4953 161.749 10.9113C161.749 11.0553 161.693 11.3513 161.581 11.7993C161.469 12.2313 161.341 12.7753 161.197 13.4313C161.053 14.0873 160.925 14.8153 160.813 15.6153C160.701 16.3993 160.645 17.1993 160.645 18.0153C160.645 18.7033 160.91 19.0473 161.438 19.0473C162.03 19.0473 162.63 18.9113 163.238 18.6393C163.846 18.3673 164.438 18.0393 165.014 17.6553C165.59 17.2553 166.118 16.8633 166.598 16.4793C167.078 16.0793 167.486 15.7433 167.822 15.4713C168.158 15.1993 168.398 15.0633 168.542 15.0633C168.67 15.0633 168.782 15.1033 168.878 15.1833C168.974 15.2633 169.021 15.3913 169.021 15.5673C169.021 15.7273 168.862 16.0153 168.542 16.4313C168.222 16.8473 167.798 17.3193 167.27 17.8473C166.741 18.3753 166.149 18.8873 165.493 19.3833C164.837 19.8793 164.165 20.2873 163.477 20.6073C162.789 20.9273 162.133 21.0873 161.509 21.0873C161.029 21.0873 160.589 20.9433 160.189 20.6553C159.805 20.3513 159.493 19.8393 159.253 19.1193C159.029 18.3993 158.917 17.4073 158.917 16.1433V15.5433C158.133 16.8393 157.309 18.0233 156.445 19.0953C155.597 20.1673 154.75 21.0233 153.902 21.6633C153.07 22.3033 152.277 22.6233 151.525 22.6233ZM160.117 11.0073C160.037 11.0393 159.925 11.0873 159.781 11.1513C159.045 11.4873 158.277 11.9033 157.477 12.3993C156.693 12.8953 155.925 13.4473 155.173 14.0553C154.437 14.6633 153.774 15.2953 153.182 15.9513C152.59 16.6073 152.118 17.2713 151.766 17.9433C151.414 18.6153 151.238 19.2713 151.238 19.9113C151.238 20.1193 151.277 20.2793 151.357 20.3913C151.453 20.5033 151.613 20.5593 151.837 20.5593C152.157 20.5593 152.573 20.3593 153.085 19.9593C153.597 19.5433 154.158 18.9993 154.766 18.3273C155.39 17.6553 156.013 16.9113 156.637 16.0953C157.261 15.2793 157.853 14.4553 158.413 13.6233C158.989 12.7913 159.486 12.0233 159.902 11.3193C159.966 11.2073 160.037 11.1033 160.117 11.0073Z" fill="black"/>
<path d="M141.385 22.4566C141.129 22.4566 140.913 22.3526 140.737 22.1446C140.561 21.9366 140.473 21.6486 140.473 21.2806C140.473 21.0086 140.529 20.5606 140.641 19.9366C140.769 19.2966 140.905 18.5526 141.049 17.7046C141.209 16.8566 141.345 15.9766 141.457 15.0646C141.569 14.1366 141.625 13.2486 141.625 12.4006C141.625 11.9846 141.729 11.6806 141.937 11.4886C142.161 11.2806 142.409 11.1766 142.681 11.1766C142.937 11.1766 143.129 11.3366 143.257 11.6566C143.385 11.9766 143.409 12.6166 143.329 13.5766C144.065 11.9446 144.873 10.6326 145.753 9.64059C146.649 8.63259 147.537 7.91259 148.417 7.48059C149.297 7.03259 150.089 6.80859 150.793 6.80859C151.257 6.80859 151.593 6.90459 151.801 7.09659C152.025 7.27259 152.137 7.47259 152.137 7.69659C152.137 8.00059 152.009 8.24059 151.753 8.41659C151.513 8.57659 151.089 8.76859 150.481 8.99259C149.777 9.26459 149.129 9.58459 148.537 9.95259C147.961 10.3046 147.409 10.7686 146.881 11.3446C146.369 11.9206 145.865 12.6566 145.369 13.5526C144.873 14.4326 144.377 15.5206 143.881 16.8166C143.385 18.1126 142.857 19.6726 142.297 21.4966C142.201 21.8486 142.073 22.0966 141.913 22.2406C141.769 22.3846 141.593 22.4566 141.385 22.4566Z" fill="black"/>
<path d="M121.683 23.6324C121.411 23.6324 121.179 23.4804 120.987 23.1764C120.795 22.8884 120.699 22.5524 120.699 22.1684C120.699 22.0084 120.731 21.8644 120.795 21.7364C120.875 21.6084 120.995 21.5124 121.155 21.4484C121.331 21.3684 121.507 21.2964 121.683 21.2324C121.875 21.1524 122.067 21.0724 122.259 20.9924C122.211 20.8644 122.171 20.7124 122.139 20.5364C122.107 20.3604 122.091 20.1524 122.091 19.9124C122.091 19.7364 122.123 19.4004 122.187 18.9044C122.267 18.3924 122.371 17.7844 122.499 17.0804C122.627 16.3764 122.763 15.6324 122.907 14.8484C123.067 14.0484 123.219 13.2724 123.363 12.5204C123.523 11.7524 123.667 11.0644 123.795 10.4564C124.083 9.14436 124.435 7.96836 124.851 6.92836C125.283 5.88836 125.859 5.07236 126.579 4.48036C127.315 3.87236 128.283 3.56836 129.483 3.56836C130.395 3.56836 131.291 3.76836 132.171 4.16836C133.067 4.56836 133.875 5.13636 134.595 5.87236C135.331 6.59236 135.915 7.44036 136.347 8.41636C136.779 9.39236 136.995 10.4564 136.995 11.6084C136.995 12.6004 136.763 13.5444 136.299 14.4404C135.835 15.3204 135.211 16.1524 134.427 16.9364C133.643 17.7204 132.747 18.4484 131.739 19.1204C130.747 19.7924 129.707 20.4084 128.619 20.9684C127.547 21.5124 126.491 21.9924 125.451 22.4084C124.411 22.8404 123.451 23.2004 122.571 23.4884C122.459 23.5204 122.323 23.5524 122.163 23.5844C122.003 23.6164 121.843 23.6324 121.683 23.6324ZM123.963 20.3204C125.355 19.7444 126.707 19.1524 128.019 18.5444C129.347 17.9364 130.539 17.2644 131.595 16.5284C132.651 15.7764 133.491 14.9364 134.115 14.0084C134.739 13.0804 135.051 12.0164 135.051 10.8164C135.051 10.1924 134.907 9.58436 134.619 8.99236C134.331 8.40036 133.931 7.87236 133.419 7.40836C132.923 6.92836 132.355 6.55236 131.715 6.28036C131.091 5.99236 130.435 5.84836 129.747 5.84836C129.123 5.84836 128.563 6.00836 128.067 6.32836C127.587 6.63236 127.171 7.17636 126.819 7.96036C126.467 8.74436 126.163 9.83236 125.907 11.2244C125.715 12.0884 125.515 13.0244 125.307 14.0324C125.099 15.0244 124.891 15.9764 124.683 16.8884C124.491 17.7844 124.331 18.5444 124.203 19.1684C124.075 19.7764 124.003 20.1284 123.987 20.2244C123.987 20.2564 123.979 20.2884 123.963 20.3204Z" fill="black"/>
<path d="M98.517 29.5612C98.021 29.6892 97.693 29.6812 97.533 29.5372C97.373 29.3932 97.293 29.2332 97.293 29.0572C97.293 28.9292 97.333 28.8012 97.413 28.6732C97.493 28.5612 97.645 28.4332 97.869 28.2892C98.669 27.7932 99.317 27.0732 99.813 26.1292C100.293 25.2012 100.677 24.1372 100.965 22.9372C101.253 21.7532 101.477 20.5452 101.637 19.3132C101.685 18.9932 101.773 18.7692 101.901 18.6412C102.029 18.5132 102.173 18.4492 102.333 18.4492C102.733 18.4492 103.085 18.6172 103.389 18.9532C103.709 19.2732 103.869 19.7692 103.869 20.4412C103.869 21.5612 103.701 22.6332 103.365 23.6572C103.029 24.6812 102.589 25.6092 102.045 26.4412C101.501 27.2732 100.917 27.9612 100.293 28.5052C99.669 29.0492 99.077 29.4012 98.517 29.5612Z" fill="black"/>
<path d="M96.437 11.6554C96.437 12.1674 96.277 12.6714 95.957 13.1674C95.637 13.6474 95.213 14.1114 94.685 14.5594C94.157 14.9914 93.573 15.3994 92.933 15.7834C92.293 16.1674 91.653 16.5034 91.013 16.7914C90.373 17.0794 89.789 17.3114 89.261 17.4874C89.133 18.1114 89.069 18.6634 89.069 19.1434C89.069 19.4474 89.141 19.6634 89.285 19.7914C89.429 19.9194 89.653 19.9834 89.957 19.9834C90.629 19.9834 91.341 19.8634 92.093 19.6234C92.845 19.3834 93.613 19.0714 94.397 18.6874C95.181 18.3034 95.933 17.8954 96.653 17.4634C97.373 17.0314 98.029 16.6234 98.621 16.2394C99.229 15.8554 99.733 15.5434 100.133 15.3034C100.533 15.0634 100.797 14.9434 100.925 14.9434C101.117 14.9434 101.261 15.0074 101.357 15.1354C101.469 15.2474 101.525 15.3834 101.525 15.5434C101.525 15.6714 101.325 15.9194 100.925 16.2874C100.541 16.6554 100.021 17.0874 99.365 17.5834C98.709 18.0634 97.973 18.5594 97.157 19.0714C96.341 19.5834 95.493 20.0634 94.613 20.5114C93.749 20.9594 92.909 21.3194 92.093 21.5914C91.293 21.8634 90.573 21.9994 89.933 21.9994C89.101 21.9994 88.453 21.6874 87.989 21.0634C87.525 20.4394 87.293 19.4714 87.293 18.1594C87.293 17.2794 87.405 16.3914 87.629 15.4954C87.869 14.5994 88.189 13.7434 88.589 12.9274C89.005 12.0954 89.461 11.3594 89.957 10.7194C90.469 10.0634 91.005 9.55142 91.565 9.18342C92.125 8.79942 92.669 8.60742 93.197 8.60742C94.205 8.60742 94.997 8.88742 95.573 9.44742C96.149 10.0074 96.437 10.7434 96.437 11.6554ZM89.765 15.6394C90.261 15.3354 90.773 15.0154 91.301 14.6794C91.829 14.3434 92.317 13.9994 92.765 13.6474C93.213 13.2954 93.573 12.9274 93.845 12.5434C94.133 12.1434 94.277 11.7354 94.277 11.3194C94.277 10.7274 93.957 10.4314 93.317 10.4314C92.917 10.4314 92.493 10.6874 92.045 11.1994C91.613 11.6954 91.197 12.3434 90.797 13.1434C90.397 13.9434 90.053 14.7754 89.765 15.6394Z" fill="black"/>
<path d="M77.2295 22.336C76.4455 22.336 75.7655 22.16 75.1895 21.808C74.6295 21.44 74.1975 20.968 73.8935 20.392C73.5895 19.816 73.4375 19.224 73.4375 18.616C73.4375 17.336 73.6615 16.168 74.1095 15.112C74.5575 14.04 75.1175 13.096 75.7895 12.28C76.4775 11.448 77.1815 10.744 77.9015 10.168C78.6375 9.59202 79.3015 9.16002 79.8935 8.87202C80.5015 8.56802 80.9335 8.41602 81.1895 8.41602C81.7015 8.41602 81.9575 8.67202 81.9575 9.18402C81.9575 9.42402 81.7975 9.70402 81.4775 10.024C81.1575 10.328 80.7495 10.688 80.2535 11.104C79.7575 11.52 79.2295 11.992 78.6695 12.52C78.1095 13.032 77.5815 13.616 77.0855 14.272C76.5895 14.912 76.1815 15.632 75.8615 16.432C75.5415 17.216 75.3815 18.08 75.3815 19.024C75.3815 19.984 75.7735 20.464 76.5575 20.464C77.2775 20.464 78.0135 20.328 78.7655 20.056C79.5335 19.784 80.2855 19.432 81.0215 19C81.7735 18.552 82.4935 18.088 83.1815 17.608C83.8695 17.128 84.4935 16.672 85.0535 16.24C85.6135 15.792 86.0855 15.432 86.4695 15.16C86.8535 14.888 87.1255 14.752 87.2855 14.752C87.6055 14.752 87.7655 14.928 87.7655 15.28C87.7655 15.552 87.5815 15.912 87.2135 16.36C86.8455 16.808 86.3495 17.296 85.7255 17.824C85.1015 18.352 84.4055 18.888 83.6375 19.432C82.8695 19.96 82.0935 20.448 81.3095 20.896C80.5255 21.328 79.7735 21.68 79.0535 21.952C78.3495 22.208 77.7415 22.336 77.2295 22.336Z" fill="black"/>
<path d="M38.2286 21.5446C37.6206 21.5446 37.1166 21.2646 36.7166 20.7046C36.3326 20.1286 36.1406 19.3846 36.1406 18.4726C36.1406 17.6726 36.3406 16.9046 36.7406 16.1686C37.1406 15.4166 37.6686 14.6966 38.3246 14.0086C38.9966 13.3206 39.7406 12.6886 40.5566 12.1126C41.3726 11.5206 42.1966 10.9846 43.0286 10.5046C43.8766 10.0246 44.6766 9.61661 45.4286 9.28061C46.1966 8.94461 46.8526 8.68861 47.3966 8.51261C47.9406 8.32061 48.3166 8.22461 48.5246 8.22461C48.8766 8.22461 49.0526 8.41661 49.0526 8.80061C49.0526 9.13661 48.9166 9.43261 48.6446 9.68861C48.3886 9.94461 48.0766 10.1606 47.7086 10.3366C47.0366 10.6726 46.2686 11.0726 45.4046 11.5366C44.5566 11.9846 43.6926 12.4886 42.8126 13.0486C41.9486 13.5926 41.1406 14.1766 40.3886 14.8006C39.6526 15.4246 39.0606 16.0806 38.6126 16.7686C38.1646 17.4406 37.9406 18.1286 37.9406 18.8326C37.9406 19.0406 37.9806 19.2006 38.0606 19.3126C38.1566 19.4246 38.3166 19.4806 38.5406 19.4806C38.8286 19.4806 39.1966 19.3446 39.6446 19.0726C40.1086 18.7846 40.6126 18.4086 41.1566 17.9446C41.7166 17.4646 42.2686 16.9366 42.8126 16.3606C43.3726 15.7846 43.8926 15.2006 44.3726 14.6086C44.8526 14.0006 45.2446 13.4326 45.5486 12.9046C45.7246 12.6166 45.9246 12.3766 46.1486 12.1846C46.3726 11.9766 46.6126 11.8726 46.8686 11.8726C47.2206 11.8726 47.3966 12.0806 47.3966 12.4966C47.3966 12.6246 47.3486 12.9526 47.2526 13.4806C47.1726 14.0086 47.0846 14.6486 46.9886 15.4006C46.8926 16.1366 46.8446 16.9126 46.8446 17.7286C46.8446 19.4726 47.2606 20.3446 48.0926 20.3446C48.5566 20.3446 49.0366 20.1686 49.5326 19.8166C50.0446 19.4646 50.5406 19.0166 51.0206 18.4726C51.5166 17.9126 51.9726 17.3206 52.3886 16.6966C52.8046 16.0726 53.1566 15.4806 53.4446 14.9206C53.7326 14.3606 53.9326 13.9126 54.0446 13.5766C54.3006 11.7846 54.6606 10.4966 55.1246 9.71261C55.6046 8.92861 56.0926 8.53661 56.5886 8.53661C56.9086 8.53661 57.1646 8.62461 57.3566 8.80061C57.5486 8.96061 57.6446 9.32061 57.6446 9.88061C57.6446 10.2646 57.4926 10.8406 57.1886 11.6086C56.8846 12.3766 56.4766 13.2166 55.9646 14.1286C55.8206 14.9446 55.7406 15.7846 55.7246 16.6486C55.7086 17.5126 55.7966 18.3046 55.9886 19.0246C56.4046 18.8166 56.8206 18.4406 57.2366 17.8966C57.6526 17.3366 58.0766 16.6886 58.5086 15.9526C58.9406 15.2166 59.3646 14.4566 59.7806 13.6726C60.2126 12.8886 60.6366 12.1686 61.0526 11.5126C61.4846 10.8406 61.9006 10.2966 62.3006 9.88061C62.7166 9.46461 63.1246 9.25661 63.5246 9.25661C64.0366 9.25661 64.4606 9.41661 64.7966 9.73661C65.1326 10.0406 65.3886 10.5846 65.5646 11.3686C65.7406 12.1366 65.8286 13.2246 65.8286 14.6326C65.8286 15.3846 65.9006 16.0886 66.0446 16.7446C66.2046 17.4006 66.4526 17.9286 66.7886 18.3286C67.1406 18.7126 67.5886 18.9046 68.1326 18.9046C68.9486 18.9046 69.6766 18.7606 70.3166 18.4726C70.9566 18.1686 71.5086 17.8326 71.9726 17.4646C72.4526 17.0806 72.8526 16.7446 73.1726 16.4566C73.4926 16.1526 73.7406 16.0006 73.9166 16.0006C74.2846 16.0006 74.4686 16.1926 74.4686 16.5766C74.4686 16.7366 74.3486 16.9926 74.1086 17.3446C73.8846 17.6806 73.5646 18.0646 73.1486 18.4966C72.7486 18.9126 72.2846 19.3206 71.7566 19.7206C71.2446 20.1046 70.6926 20.4246 70.1006 20.6806C69.5246 20.9366 68.9406 21.0646 68.3486 21.0646C67.2446 21.0646 66.3406 20.8486 65.6366 20.4166C64.9486 19.9846 64.4366 19.2726 64.1006 18.2806C63.7806 17.2886 63.6206 15.9606 63.6206 14.2966C63.6206 13.3846 63.5886 12.7206 63.5246 12.3046C63.4606 11.8726 63.3006 11.5846 63.0446 11.4406C62.8526 11.7766 62.5966 12.2566 62.2766 12.8806C61.9726 13.4886 61.6206 14.1686 61.2206 14.9206C60.8366 15.6726 60.4206 16.4326 59.9726 17.2006C59.5246 17.9526 59.0686 18.6486 58.6046 19.2886C58.1406 19.9126 57.6766 20.4246 57.2126 20.8246C56.7486 21.2086 56.3086 21.4006 55.8926 21.4006C55.6206 21.4006 55.3406 21.2566 55.0526 20.9686C54.7646 20.6646 54.5246 20.2726 54.3326 19.7926C54.1406 19.2966 54.0446 18.7686 54.0446 18.2086C54.0446 17.8406 54.0526 17.4966 54.0686 17.1766C53.4126 18.1046 52.7246 18.9686 52.0046 19.7686C51.2846 20.5526 50.5646 21.1846 49.8446 21.6646C49.1246 22.1446 48.4526 22.3846 47.8286 22.3846C47.3326 22.3846 46.8686 22.2086 46.4366 21.8566C46.0046 21.4886 45.6526 20.8726 45.3806 20.0086C45.1246 19.1286 44.9806 17.9366 44.9486 16.4326C44.2446 17.4246 43.5006 18.3046 42.7166 19.0726C41.9326 19.8406 41.1566 20.4486 40.3886 20.8966C39.6206 21.3286 38.9006 21.5446 38.2286 21.5446Z" fill="black"/>
<path d="M17.9048 23.0804C17.5528 23.0804 17.2808 22.9764 17.0888 22.7684C16.8968 22.5764 16.8008 22.0884 16.8008 21.3044C16.8008 20.5844 16.9288 19.6484 17.1848 18.4964C17.4408 17.3284 17.7848 16.0324 18.2168 14.6084C18.6488 13.1844 19.1368 11.7124 19.6808 10.1924C20.2248 8.65639 20.7928 7.15239 21.3848 5.68039C21.9928 4.19239 22.5768 2.83239 23.1368 1.60039C23.3448 1.15239 23.5608 0.840391 23.7848 0.66439C24.0088 0.48839 24.2728 0.400391 24.5768 0.400391C24.7848 0.400391 24.9608 0.464391 25.1048 0.592391C25.2648 0.704391 25.3448 0.89639 25.3448 1.16839C25.3448 1.26439 25.2408 1.57639 25.0328 2.10439C24.8408 2.63239 24.5688 3.32839 24.2168 4.19239C23.8808 5.05639 23.5048 6.02439 23.0888 7.09639C22.6728 8.16839 22.2488 9.29639 21.8168 10.4804C21.3848 11.6644 20.9768 12.8564 20.5928 14.0564C20.2088 15.2404 19.8808 16.3764 19.6088 17.4644C19.3368 18.5524 19.1528 19.5284 19.0568 20.3924C19.4408 19.9284 19.8808 19.3364 20.3768 18.6164C20.8728 17.8964 21.4008 17.1204 21.9608 16.2884C22.5208 15.4564 23.0888 14.6324 23.6648 13.8164C24.2408 13.0004 24.8088 12.2564 25.3688 11.5844C25.9288 10.9124 26.4488 10.3764 26.9288 9.97639C27.4248 9.56039 27.8568 9.35239 28.2248 9.35239C28.8328 9.35239 29.3208 9.54439 29.6888 9.92839C30.0728 10.2964 30.2648 10.9044 30.2648 11.7524C30.2648 12.2324 30.1688 12.8084 29.9768 13.4804C29.8008 14.1524 29.5928 14.8564 29.3528 15.5924C29.1128 16.3284 28.8968 17.0324 28.7048 17.7044C28.5288 18.3764 28.4408 18.9524 28.4408 19.4324C28.4408 20.0884 28.6888 20.4164 29.1848 20.4164C29.9528 20.4164 30.7208 20.2484 31.4888 19.9124C32.2728 19.5764 33.0168 19.1604 33.7208 18.6644C34.4248 18.1524 35.0728 17.6404 35.6648 17.1284C36.2568 16.6004 36.7608 16.1524 37.1768 15.7844C37.6248 15.3844 38.0008 15.1844 38.3048 15.1844C38.6888 15.1844 38.8808 15.3844 38.8808 15.7844C38.8808 15.8964 38.8568 16.0244 38.8088 16.1684C38.7608 16.3124 38.6328 16.4964 38.4248 16.7204C38.1688 17.0084 37.8008 17.3844 37.3208 17.8484C36.8568 18.3124 36.3128 18.8084 35.6888 19.3364C35.0808 19.8644 34.4168 20.3604 33.6968 20.8244C32.9928 21.2884 32.2648 21.6724 31.5128 21.9764C30.7768 22.2644 30.0568 22.4084 29.3528 22.4084C28.3928 22.4084 27.6488 22.1364 27.1208 21.5924C26.6088 21.0324 26.3528 20.2644 26.3528 19.2884C26.3528 18.6804 26.4488 17.9444 26.6408 17.0804C26.8328 16.2164 27.0728 15.3044 27.3608 14.3444C27.6648 13.3684 27.9688 12.4164 28.2728 11.4884C27.7608 11.8404 27.2008 12.3684 26.5928 13.0724C26.0008 13.7604 25.3768 14.5444 24.7208 15.4244C24.0648 16.2884 23.4088 17.1684 22.7528 18.0644C22.1128 18.9604 21.4888 19.7924 20.8808 20.5604C20.2888 21.3124 19.7368 21.9204 19.2248 22.3844C18.7128 22.8484 18.2728 23.0804 17.9048 23.0804Z" fill="black"/>
<path d="M11.032 18.4473C11.208 18.4473 11.376 18.5193 11.536 18.6633C11.696 18.8073 11.776 19.0393 11.776 19.3593C11.776 19.6153 11.584 19.9193 11.2 20.2713C10.816 20.6073 10.32 20.9353 9.71203 21.2553C9.12003 21.5753 8.48003 21.8393 7.79203 22.0473C7.10403 22.2713 6.45603 22.3833 5.84803 22.3833C4.98403 22.3833 4.16803 22.1593 3.40003 21.7113C2.64803 21.2633 2.03203 20.6153 1.55203 19.7673C1.07203 18.9033 0.832031 17.8553 0.832031 16.6233C0.832031 15.5353 1.03203 14.4473 1.43203 13.3593C1.83203 12.2713 2.36003 11.2233 3.01603 10.2153C3.68803 9.20733 4.42403 8.27133 5.22403 7.40733C6.04003 6.54333 6.85603 5.79133 7.67203 5.15133C8.48803 4.51133 9.24803 4.01533 9.95203 3.66333C10.672 3.29533 11.264 3.11133 11.728 3.11133C12.048 3.11133 12.304 3.23133 12.496 3.47133C12.704 3.69533 12.808 3.94333 12.808 4.21533C12.808 4.37533 12.76 4.53533 12.664 4.69533C12.584 4.85533 12.44 4.98333 12.232 5.07933C11.192 5.59133 10.136 6.24733 9.06403 7.04733C7.99203 7.84733 7.00003 8.75933 6.08803 9.78333C5.17603 10.7913 4.44003 11.8873 3.88003 13.0713C3.32003 14.2393 3.04003 15.4713 3.04003 16.7673C3.04003 17.8873 3.30403 18.7433 3.83203 19.3353C4.36003 19.9113 5.08003 20.1993 5.99203 20.1993C6.47203 20.1993 6.96803 20.1113 7.48003 19.9353C8.00803 19.7593 8.50403 19.5593 8.96803 19.3353C9.44803 19.0953 9.86403 18.8873 10.216 18.7113C10.584 18.5353 10.856 18.4473 11.032 18.4473Z" fill="black"/>
</svg>
