<svg width="1827" height="976" viewBox="0 0 1827 976" fill="none" xmlns="http://www.w3.org/2000/svg">
<g clip-path="url(#clip0_4611_7253)">
<path d="M15.7501 1013.5C337.75 381 651.346 608.093 778.25 712.516C1184.75 1047 1590.08 925.892 1672.25 786.5C1789.56 587.5 1549.61 646.725 1737.75 371C1882.75 158.5 1727.75 38.9964 1630.25 39C1386.75 55 1417.75 519.515 1040.25 519.515C759.751 519.515 891.75 285.5 387.75 399C227.25 447.5 -155.101 454.5 -67.5012 134.5" stroke="url(#paint0_linear_4611_7253)" stroke-width="60"/>
<mask id="mask0_4611_7253" style="mask-type:alpha" maskUnits="userSpaceOnUse" x="1542" y="162" width="285" height="645">
<path d="M1542 162H1827V807H1542V162Z" fill="#D9D9D9"/>
</mask>
<g mask="url(#mask0_4611_7253)">
<path d="M131 975.5C453 343 651.097 608.093 778.001 712.516C1184.5 1047 1589.83 925.892 1672 786.5C1789.31 587.5 1549.36 646.725 1737.5 371C1882.5 158.5 1727.5 38.9964 1630 39C1386.5 55 1417.5 519.515 1040 519.515C759.501 519.515 891.501 285.5 387.501 399C227.001 447.5 -72.0988 464.5 15.5012 144.5" stroke="url(#paint1_linear_4611_7253)" stroke-width="60"/>
</g>
</g>
<defs>
<linearGradient id="paint0_linear_4611_7253" x1="1362.25" y1="232.5" x2="467.75" y2="504" gradientUnits="userSpaceOnUse">
<stop stop-color="#D2F38A"/>
<stop offset="1" stop-color="#385842"/>
</linearGradient>
<linearGradient id="paint1_linear_4611_7253" x1="1362" y1="232.5" x2="467.5" y2="504" gradientUnits="userSpaceOnUse">
<stop stop-color="#D2F38A"/>
<stop offset="1" stop-color="#385842"/>
</linearGradient>
<clipPath id="clip0_4611_7253">
<rect width="1827" height="976" fill="white"/>
</clipPath>
</defs>
</svg>
