<?xml version="1.0" standalone="no"?>
<!DOCTYPE svg PUBLIC "-//W3C//DTD SVG 20010904//EN"
 "http://www.w3.org/TR/2001/REC-SVG-20010904/DTD/svg10.dtd">
<svg version="1.0" xmlns="http://www.w3.org/2000/svg"
 width="260.000000pt" height="260.000000pt" viewBox="0 0 260.000000 260.000000"
 preserveAspectRatio="xMidYMid meet">
<metadata>
Created by potrace 1.14, written by Peter Selinger 2001-2017
</metadata>
<g transform="translate(0.000000,260.000000) scale(0.100000,-0.100000)"
fill="#000000" stroke="none">
<path d="M824 1295 l1 -1135 246 0 247 0 1 1135 0 1135 -247 0 -248 0 0 -1135z"/>
<path d="M1420 2210 l0 -220 118 -1 c217 -1 283 -16 354 -78 64 -57 91 -124
92 -226 0 -92 -7 -132 -34 -185 -45 -87 -142 -134 -299 -143 l-45 -3 -76 -180
c-42 -99 -84 -198 -92 -220 l-16 -40 201 2 c274 1 366 17 499 84 232 117 369
338 385 620 18 332 -125 596 -395 730 -126 62 -221 78 -479 79 l-213 2 0 -221z"/>
<path d="M194 2114 c-107 -37 -148 -169 -80 -259 50 -66 64 -68 331 -71 132
-1 247 0 255 2 14 3 16 29 15 172 l0 167 -242 1 c-170 0 -254 -3 -279 -12z"/>
<path d="M182 1543 c-127 -61 -134 -241 -13 -303 40 -20 75 -22 401 -21 l155
1 0 168 0 167 -256 2 c-211 1 -261 -1 -287 -14z"/>
</g>
</svg>
