<svg width="28" height="23" viewBox="0 0 28 23" fill="none" xmlns="http://www.w3.org/2000/svg">
<path d="M5.15625 7.36474L1.68825 7.36474C0.756404 7.36474 0.00099617 6.60933 0.000996203 5.67749V5.67749C0.000996235 4.74564 0.756405 3.99023 1.68825 3.99023L5.15625 3.99023L5.15625 7.36474Z" fill="black"/>
<path d="M5.15625 12.52L1.68825 12.52C0.756404 12.52 0.00099617 11.7646 0.000996203 10.8328V10.8328C0.000996235 9.90092 0.756405 9.14551 1.68825 9.14551L5.15625 9.14551L5.15625 12.52Z" fill="black"/>
<path fill-rule="evenodd" clip-rule="evenodd" d="M10.1506 22.981V0.370117H6.19141V22.981H10.1506ZM11.7868 15.1863H15.1306C16.6566 15.1863 17.9763 14.877 19.0899 14.2584C20.2034 13.6191 21.0695 12.7427 21.6881 11.6292C22.0596 10.9482 22.3195 10.2113 22.4679 9.41878H27.988V6.04577L22.462 6.04577C22.3127 5.26048 22.0547 4.544 21.6881 3.89631C21.0695 2.78278 20.2034 1.91669 19.0899 1.29806C17.9763 0.679432 16.6566 0.370117 15.1306 0.370117H11.0503V3.89631H14.3573C15.6771 3.89631 16.6875 4.22625 17.3886 4.88612C18.1104 5.54599 18.4712 6.49456 18.4712 7.73182C18.4712 8.96908 18.1104 9.93827 17.3886 10.6394C16.6875 11.3199 15.6565 11.6601 14.2955 11.6601H12.8915L11.7868 15.1863Z" fill="black"/>
</svg>
