<svg width="85" height="24" viewBox="0 0 85 24" fill="none" xmlns="http://www.w3.org/2000/svg">
<path d="M5.15625 7.36474L1.68825 7.36474C0.756404 7.36474 0.000996021 6.60933 0.000996054 5.67749C0.000996086 4.74564 0.756404 3.99023 1.68825 3.99023L5.15625 3.99023L5.15625 7.36474Z" fill="black"/>
<path d="M74.6503 3.71178C73.1656 3.71178 71.8974 4.05203 70.8458 4.73252C69.7941 5.41302 68.9899 6.36158 68.4331 7.57822C67.8763 8.77424 67.5979 10.1971 67.5979 11.8468C67.5979 13.5171 67.897 14.9399 68.495 16.1153C69.093 17.2701 69.9178 18.1465 70.9695 18.7445C72.0418 19.3425 73.2687 19.6415 74.6503 19.6415C75.6608 19.6415 76.5475 19.5178 77.3104 19.2703C78.094 19.0023 78.7539 18.6208 79.2901 18.1259C79.8262 17.6103 80.2386 16.9917 80.5273 16.27C80.8366 15.5482 80.9913 14.744 80.9913 13.8573V11.8777L82.8472 13.7645H74.1554V10.2693H84.6722V22.9821H81.3315L80.9913 19.3322L81.4553 19.7962C81.1253 20.4767 80.5995 21.085 79.8778 21.6211C79.1766 22.1573 78.3415 22.58 77.3723 22.8893C76.4031 23.178 75.3514 23.3224 74.2173 23.3224C72.1139 23.3224 70.2477 22.8481 68.6187 21.8995C67.0102 20.9303 65.7421 19.5797 64.8141 17.8475C63.9068 16.1153 63.4531 14.0842 63.4531 11.754C63.4531 9.46505 63.9171 7.44419 64.845 5.6914C65.7936 3.91799 67.1134 2.52607 68.8043 1.51565C70.5158 0.505215 72.4954 0 74.7431 0C76.4753 0 78.0425 0.319626 79.4447 0.958878C80.847 1.57751 81.9914 2.4539 82.8781 3.58806C83.7854 4.72221 84.3422 6.06258 84.5484 7.60916H80.3727C80.0221 6.26879 79.321 5.28929 78.2693 4.67066C77.2176 4.03141 76.0113 3.71178 74.6503 3.71178Z" fill="black"/>
<path d="M41.9688 14.7233V0.371094H45.928V14.4759C45.928 16.1049 46.361 17.3525 47.2271 18.2186C48.0932 19.0847 49.3201 19.5177 50.908 19.5177C52.5164 19.5177 53.7537 19.0847 54.6197 18.2186C55.4858 17.3319 55.9189 16.0843 55.9189 14.4759V0.371094H59.8781V14.7233C59.8781 16.4761 59.5069 18.0021 58.7646 19.3012C58.0428 20.5797 57.0118 21.5798 55.6714 22.3015C54.3311 23.0027 52.7432 23.3532 50.908 23.3532C49.0933 23.3532 47.5158 23.0027 46.1754 22.3015C44.8351 21.6004 43.7937 20.6003 43.0514 19.3012C42.3296 18.0021 41.9688 16.4761 41.9688 14.7233Z" fill="black"/>
<path d="M31.3772 0.371094V22.982H27.418V0.371094H31.3772ZM28.0985 22.982V19.3321H40.8113V22.982H28.0985Z" fill="black"/>
<path d="M5.15625 12.52L1.68825 12.52C0.756404 12.52 0.000996021 11.7646 0.000996054 10.8328C0.000996086 9.90092 0.756404 9.14551 1.68825 9.14551L5.15625 9.14551L5.15625 12.52Z" fill="black"/>
<path fill-rule="evenodd" clip-rule="evenodd" d="M10.1506 22.981V0.370117H6.19141V22.981H10.1506ZM11.7868 15.1863H15.1306C16.6566 15.1863 17.9763 14.877 19.0899 14.2584C20.2034 13.6191 21.0695 12.7427 21.6881 11.6292C22.0596 10.9482 22.3195 10.2113 22.4679 9.41878H27.988V6.04577L22.462 6.04577C22.3127 5.26048 22.0547 4.544 21.6881 3.89631C21.0695 2.78278 20.2034 1.91669 19.0899 1.29806C17.9763 0.679432 16.6566 0.370117 15.1306 0.370117H11.0503V3.89631H14.3573C15.6771 3.89631 16.6875 4.22625 17.3886 4.88612C18.1104 5.54599 18.4712 6.49456 18.4712 7.73182C18.4712 8.96908 18.1104 9.93827 17.3886 10.6394C16.6875 11.3199 15.6565 11.6601 14.2955 11.6601H12.8915L11.7868 15.1863Z" fill="black"/>
</svg>
