<svg width="662" height="616" viewBox="0 0 662 616" fill="none" xmlns="http://www.w3.org/2000/svg">
<path d="M0 129.115C0 103.592 20.6906 82.9023 46.2138 82.9023H173.302V175.327H46.2138C20.6906 175.327 0 154.637 0 129.115Z" fill="black"/>
<path d="M175.423 329.026H46.1079C20.6627 329.026 0.0351552 308.399 0.0351563 282.954C0.0351574 257.51 20.6627 236.883 46.108 236.883H175.423V329.026Z" fill="black"/>
<path d="M337.441 0.451172V616H202.682V0.451172H337.441ZM452.236 411.372H365.308L415.912 291.589H422.29C455.009 291.589 479.41 284.657 495.492 270.794C511.575 256.375 519.616 234.748 519.616 205.912C519.616 177.075 511.575 155.725 495.492 141.861C479.41 127.443 455.009 120.234 422.29 120.234H365.308V0.451172H452.236C494.383 0.451172 530.984 9.04666 562.04 26.2377C593.65 43.4287 618.051 67.5515 635.243 98.6062C652.989 129.107 661.862 164.875 661.862 205.912C661.862 246.948 652.989 282.994 635.243 314.048C618.051 344.549 593.65 368.394 562.04 385.585C530.984 402.776 494.383 411.372 452.236 411.372Z" fill="black"/>
</svg>
