<svg width="1024" height="1024" viewBox="0 0 1024 1024" fill="none" xmlns="http://www.w3.org/2000/svg">
<path fill-rule="evenodd" clip-rule="evenodd" d="M511.723 478.851C499.07 478.851 488.812 489.108 488.812 501.762V533.838H456.736C444.082 533.838 433.824 544.096 433.824 556.75C433.824 569.403 444.082 579.661 456.736 579.661H488.812V611.737C488.812 624.391 499.07 634.649 511.723 634.649C524.377 634.649 534.635 624.391 534.635 611.737V579.661H566.711C579.365 579.661 589.623 569.403 589.623 556.75C589.623 544.096 579.365 533.838 566.711 533.838H534.635V501.762C534.635 489.108 524.377 478.851 511.723 478.851Z" fill="#121111"/>
<path opacity="0.5" fill-rule="evenodd" clip-rule="evenodd" d="M511.723 460.521C499.07 460.521 488.812 470.779 488.812 483.433V515.509H456.736C444.082 515.509 433.824 525.767 433.824 538.421C433.824 551.074 444.082 561.332 456.736 561.332H488.812V593.408C488.812 606.062 499.07 616.32 511.723 616.32C524.377 616.32 534.635 606.062 534.635 593.408V561.332H566.711C579.365 561.332 589.623 551.074 589.623 538.421C589.623 525.767 579.365 515.509 566.711 515.509H534.635V483.433C534.635 470.779 524.377 460.521 511.723 460.521Z" fill="#121111"/>
<path opacity="0.5" fill-rule="evenodd" clip-rule="evenodd" d="M511.723 442.192C499.07 442.192 488.812 452.45 488.812 465.104V497.18H456.736C444.082 497.18 433.824 507.438 433.824 520.092C433.824 532.745 444.082 543.003 456.736 543.003H488.812V575.079C488.812 587.733 499.07 597.991 511.723 597.991C524.377 597.991 534.635 587.733 534.635 575.079V543.003H566.711C579.365 543.003 589.623 532.745 589.623 520.092C589.623 507.438 579.365 497.18 566.711 497.18H534.635V465.104C534.635 452.45 524.377 442.192 511.723 442.192Z" fill="#121111"/>
<path d="M775.206 316.179C797.982 316.179 816.446 334.643 816.446 357.419V357.419C816.446 380.196 797.982 398.66 775.206 398.66L248.241 398.66C225.464 398.66 207 380.196 207 357.419V357.419C207 334.643 225.464 316.179 248.241 316.179L775.206 316.179Z" fill="#121111"/>
<path opacity="0.5" d="M775.206 297.85C797.982 297.85 816.446 316.314 816.446 339.09V339.09C816.446 361.867 797.982 380.331 775.206 380.331L248.241 380.331C225.464 380.331 207 361.867 207 339.09V339.09C207 316.314 225.464 297.85 248.241 297.85L775.206 297.85Z" fill="#121111"/>
<path opacity="0.5" d="M775.206 279.521C797.982 279.521 816.446 297.985 816.446 320.761V320.761C816.446 343.538 797.982 362.002 775.206 362.002L248.241 362.002C225.464 362.002 207 343.538 207 320.761V320.761C207 297.985 225.464 279.52 248.241 279.52L775.206 279.521Z" fill="#121111"/>
<path d="M346.761 77.8994C346.761 55.1228 365.225 36.6587 388.001 36.6587V36.6587C410.778 36.6587 429.242 55.1228 429.242 77.8994L429.242 281.812H346.761L346.761 77.8994Z" fill="#121111"/>
<path d="M596.496 77.8994C596.496 55.1228 614.96 36.6587 637.737 36.6587V36.6587C660.513 36.6587 678.978 55.1228 678.978 77.8994V281.812H596.496V77.8994Z" fill="#121111"/>
<g opacity="0.5">
<path d="M346.761 59.5698C346.761 36.7932 365.225 18.3291 388.001 18.3291V18.3291C410.778 18.3291 429.242 36.7932 429.242 59.5698L429.242 263.482H346.761L346.761 59.5698Z" fill="#121111"/>
<path d="M596.496 59.5698C596.496 36.7932 614.96 18.3291 637.737 18.3291V18.3291C660.513 18.3291 678.978 36.7932 678.978 59.5698V263.482H596.496V59.5698Z" fill="#121111"/>
</g>
<g opacity="0.5">
<path d="M346.761 41.2407C346.761 18.4641 365.225 0 388.001 0V0C410.778 0 429.242 18.4641 429.242 41.2407L429.242 245.153H346.761L346.761 41.2407Z" fill="#121111"/>
<path d="M596.496 41.2407C596.496 18.4641 614.96 0 637.737 0V0C660.513 0 678.978 18.4641 678.978 41.2407V245.153H596.496V41.2407Z" fill="#121111"/>
</g>
<path fill-rule="evenodd" clip-rule="evenodd" d="M271.152 544.149V481.947L355.925 504.662V549.877C355.925 637.187 426.704 707.966 514.014 707.966C601.325 707.966 672.104 637.187 672.104 549.877V433.028H754.585V544.149C754.585 663.185 668.54 762.124 555.255 782.161V1019.41C555.255 1023.57 550.165 1025.57 547.326 1022.54L474.009 944.13C473.215 943.281 472.774 942.163 472.774 941V782.555C358.359 763.454 271.152 663.986 271.152 544.149Z" fill="#121111"/>
<path opacity="0.5" fill-rule="evenodd" clip-rule="evenodd" d="M271.152 525.819V463.618L355.925 486.332V531.547C355.925 618.857 426.704 689.636 514.014 689.636C601.325 689.636 672.104 618.857 672.104 531.547V414.698H754.585V525.819C754.585 644.855 668.54 743.794 555.255 763.832V1001.08C555.255 1005.24 550.165 1007.25 547.326 1004.21L474.009 925.801C473.215 924.952 472.774 923.833 472.774 922.671V764.225C358.359 745.125 271.152 645.656 271.152 525.819Z" fill="#121111"/>
<path opacity="0.5" fill-rule="evenodd" clip-rule="evenodd" d="M271.152 507.49V445.288L355.925 468.003V513.218C355.925 600.528 426.704 671.307 514.014 671.307C601.325 671.307 672.104 600.528 672.104 513.218V396.369H754.585V507.49C754.585 626.526 668.54 725.465 555.255 745.503V982.75C555.255 986.907 550.165 988.916 547.326 985.88L474.009 907.471C473.215 906.623 472.774 905.504 472.774 904.342V745.896C358.359 726.796 271.152 627.327 271.152 507.49Z" fill="#121111"/>
</svg>
