<svg width="201" height="56" viewBox="0 0 201 56" fill="none" xmlns="http://www.w3.org/2000/svg">
<path d="M12.1875 17.5645L3.99092 17.5645C1.78852 17.5645 0.0031264 15.7791 0.00312648 13.5767V13.5767C0.00312656 11.3743 1.78852 9.58887 3.99092 9.58887L12.1875 9.58887L12.1875 17.5645Z" fill="black"/>
<path d="M176.437 8.93095C172.928 8.93095 169.931 9.73512 167.445 11.3435C164.959 12.9518 163.059 15.1937 161.743 18.0692C160.427 20.896 159.769 24.2589 159.769 28.1579C159.769 32.1056 160.476 35.4685 161.889 38.2466C163.302 40.9759 165.252 43.0472 167.737 44.4606C170.272 45.874 173.172 46.5807 176.437 46.5807C178.825 46.5807 180.921 46.2882 182.724 45.7034C184.576 45.0698 186.136 44.1682 187.403 42.9985C188.67 41.78 189.645 40.3179 190.327 38.6121C191.058 36.9063 191.424 35.0055 191.424 32.9098V28.231L195.81 32.6905H175.267V24.4295H200.124V54.4761H192.228L191.424 45.8496L192.52 46.9462C191.741 48.5545 190.498 49.9923 188.792 51.2595C187.135 52.5266 185.161 53.5258 182.87 54.2568C180.58 54.9391 178.094 55.2803 175.414 55.2803C170.442 55.2803 166.032 54.1593 162.181 51.9174C158.38 49.6268 155.383 46.4345 153.189 42.3405C151.045 38.2466 149.973 33.4459 149.973 27.9386C149.973 22.5287 151.069 17.7524 153.262 13.6098C155.504 9.41833 158.624 6.12855 162.62 3.74041C166.665 1.35227 171.344 0.158203 176.656 0.158203C180.75 0.158203 184.454 0.913635 187.769 2.4245C191.083 3.88662 193.788 5.95796 195.883 8.63853C198.028 11.3191 199.344 14.487 199.831 18.1423H189.962C189.133 14.9744 187.476 12.6594 184.991 11.1972C182.505 9.68638 179.654 8.93095 176.437 8.93095Z" fill="black"/>
<path d="M99.1953 34.9565V1.03516H108.553V34.3716C108.553 38.2219 109.576 41.1705 111.623 43.2175C113.67 45.2644 116.57 46.2879 120.323 46.2879C124.125 46.2879 127.049 45.2644 129.096 43.2175C131.143 41.1217 132.166 38.1731 132.166 34.3716V1.03516H141.524V34.9565C141.524 39.0991 140.647 42.7057 138.892 45.7762C137.186 48.7979 134.749 51.1617 131.581 52.8675C128.413 54.5246 124.661 55.3531 120.323 55.3531C116.034 55.3531 112.306 54.5246 109.138 52.8675C105.97 51.2104 103.509 48.8466 101.754 45.7762C100.048 42.7057 99.1953 39.0991 99.1953 34.9565Z" fill="black"/>
<path d="M74.1623 1.03516V54.4758H64.8047V1.03516H74.1623ZM66.413 54.4758V45.8493H96.4597V54.4758H66.413Z" fill="black"/>
<path d="M12.1875 29.749L3.99092 29.749C1.78852 29.749 0.0031264 27.9636 0.00312648 25.7612V25.7612C0.00312656 23.5588 1.78852 21.7734 3.99092 21.7734L12.1875 21.7734L12.1875 29.749Z" fill="black"/>
<path fill-rule="evenodd" clip-rule="evenodd" d="M23.9943 54.4738V1.0332H14.6367V54.4738H23.9943ZM27.8614 36.0511H35.7644C39.371 36.0511 42.4902 35.32 45.122 33.8579C47.7538 32.347 49.8008 30.2757 51.2629 27.6439C52.1409 26.0343 52.7552 24.293 53.106 22.4199H66.1533V14.4478L53.0922 14.4478C52.7392 12.5917 52.1295 10.8982 51.2629 9.36731C49.8008 6.73549 47.7538 4.68851 45.122 3.22639C42.4902 1.76426 39.371 1.0332 35.7644 1.0332H26.1208V9.36731H33.9368C37.056 9.36731 39.4441 10.1471 41.1012 11.7067C42.807 13.2663 43.6599 15.5082 43.6599 18.4325C43.6599 21.3567 42.807 23.6474 41.1012 25.3045C39.4441 26.9128 37.0072 27.717 33.7906 27.717H30.4723L27.8614 36.0511Z" fill="black"/>
</svg>
