<svg width="205" height="55" viewBox="0 0 205 55" fill="none" xmlns="http://www.w3.org/2000/svg">
<path d="M102.122 34.1283L102.122 0.864258L113.786 0.864258V33.3363C113.786 36.6963 114.674 39.2643 116.45 41.0403C118.226 42.8163 120.746 43.7043 124.01 43.7043C127.322 43.7043 129.866 42.7923 131.642 40.9683C133.466 39.1443 134.378 36.6003 134.378 33.3363V0.864258H146.042V34.1283C146.042 38.3523 145.13 42.0243 143.306 45.1443C141.53 48.2643 138.986 50.6883 135.674 52.4163C132.362 54.1443 128.474 55.0083 124.01 55.0083C119.594 55.0083 115.73 54.1683 112.418 52.4883C109.154 50.7603 106.61 48.3363 104.786 45.2163C103.01 42.0483 102.122 38.3523 102.122 34.1283Z" fill="black"/>
<path d="M0 12C0 9.79086 1.79086 8 4 8H15V16H4C1.79086 16 0 14.2091 0 12V12Z" fill="black"/>
<path d="M15.1855 29.3037L3.99281 29.3037C1.79041 29.3037 0.00501558 27.5183 0.00501568 25.3159V25.3159C0.00501577 23.1135 1.79041 21.3281 3.99281 21.3281L15.1855 21.3281L15.1855 29.3037Z" fill="black"/>
<path d="M180.739 10.944C177.523 10.944 174.835 11.664 172.675 13.104C170.515 14.496 168.883 16.464 167.779 19.008C166.675 21.552 166.123 24.552 166.123 28.008C166.123 31.56 166.747 34.536 167.995 36.936C169.243 39.336 170.947 41.136 173.107 42.336C175.315 43.488 177.835 44.064 180.667 44.064C183.067 44.064 185.107 43.752 186.787 43.128C188.467 42.504 189.811 41.64 190.819 40.536C191.875 39.432 192.643 38.184 193.123 36.792C193.651 35.4 193.915 33.96 193.915 32.472V28.224L199.459 33.768H184L179.731 23.544H204.787V54.144H194.779L193.843 46.872L195.139 47.952C194.371 49.344 193.171 50.568 191.539 51.624C189.955 52.68 188.083 53.496 185.923 54.072C183.811 54.648 181.555 54.936 179.155 54.936C174.211 54.936 169.819 53.808 165.979 51.552C162.187 49.248 159.211 46.056 157.051 41.976C154.891 37.896 153.811 33.12 153.811 27.648C153.811 22.272 154.939 17.52 157.195 13.392C159.451 9.216 162.619 5.952 166.699 3.6C170.779 1.2 175.555 0 181.027 0C185.299 0 189.139 0.792 192.547 2.376C196.003 3.912 198.811 6.12 200.971 9C203.131 11.832 204.403 15.168 204.787 19.008H192.547C191.875 16.176 190.435 14.136 188.227 12.888C186.019 11.592 183.523 10.944 180.739 10.944Z" fill="black"/>
<path d="M76.3173 0.864258V54.1443H64.6533V0.864258H76.3173ZM66.7413 54.1443V43.3443H97.3413V54.1443H66.7413Z" fill="black"/>
<path d="M29.2079 0.864258V54.1443H17.5439V0.864258H29.2079ZM39.1439 36.4323H31.62L36 26.0643H36.5519C39.3839 26.0643 41.4959 25.4643 42.8879 24.2643C44.2799 23.0163 44.9759 21.1443 44.9759 18.6483C44.9759 16.1523 44.2799 14.3043 42.8879 13.1043C41.4959 11.8563 39.3839 11.2323 36.5519 11.2323H31.62V0.864258H39.1439C42.7919 0.864258 45.9599 1.60826 48.6479 3.09625C51.3839 4.58426 53.4959 6.67226 54.9839 9.36026C56.5199 12.0003 57.2879 15.0963 57.2879 18.6483C57.2879 22.2003 56.5199 25.3203 54.9839 28.0083C53.4959 30.6483 51.3839 32.7123 48.6479 34.2003C45.9599 35.6883 42.7919 36.4323 39.1439 36.4323Z" fill="black"/>
</svg>
