<svg width="1920" height="1080" viewBox="0 0 1920 1080" fill="none" xmlns="http://www.w3.org/2000/svg">
<path fill-rule="evenodd" clip-rule="evenodd" d="M1920 0H0V1080H1920V0ZM33 18.2656C21.9543 18.2656 13 27.2199 13 38.2656V84.8935C13 95.9392 21.9543 104.893 33 104.893H79.6279C90.6736 104.893 99.6279 95.9392 99.6279 84.8935V38.2656C99.6279 27.2199 90.6736 18.2656 79.6279 18.2656H33ZM33 124.582C21.9543 124.582 13 133.536 13 144.582V191.21C13 202.255 21.9543 211.21 33 211.21H79.6279C90.6736 211.21 99.6279 202.255 99.6279 191.21V144.582C99.6279 133.536 90.6736 124.582 79.6279 124.582H33ZM13 250.898C13 239.852 21.9543 230.898 33 230.898H79.6279C90.6736 230.898 99.6279 239.852 99.6279 250.898V297.526C99.6279 308.571 90.6736 317.526 79.6279 317.526H33C21.9543 317.526 13 308.571 13 297.526V250.898ZM33 337.214C21.9543 337.214 13 346.168 13 357.214V403.842C13 414.887 21.9543 423.842 33 423.842H79.6279C90.6736 423.842 99.6279 414.887 99.6279 403.842V357.214C99.6279 346.168 90.6736 337.214 79.6279 337.214H33ZM13 463.53C13 452.484 21.9543 443.53 33 443.53H79.6279C90.6736 443.53 99.6279 452.484 99.6279 463.53V510.158C99.6279 521.203 90.6736 530.158 79.6279 530.158H33C21.9543 530.158 13 521.203 13 510.158V463.53ZM33 549.846C21.9543 549.846 13 558.8 13 569.846V616.474C13 627.519 21.9543 636.474 33 636.474H79.6279C90.6736 636.474 99.6279 627.519 99.6279 616.474V569.846C99.6279 558.8 90.6736 549.846 79.6279 549.846H33ZM13 676.162C13 665.116 21.9543 656.162 33 656.162H79.6279C90.6736 656.162 99.6279 665.116 99.6279 676.162V722.79C99.6279 733.835 90.6736 742.79 79.6279 742.79H33C21.9543 742.79 13 733.835 13 722.79V676.162ZM33 762.478C21.9543 762.478 13 771.432 13 782.478V829.106C13 840.151 21.9543 849.106 33 849.106H79.6279C90.6736 849.106 99.6279 840.151 99.6279 829.106V782.478C99.6279 771.432 90.6736 762.478 79.6279 762.478H33ZM13 888.794C13 877.748 21.9543 868.794 33 868.794H79.6279C90.6736 868.794 99.6279 877.748 99.6279 888.794V935.422C99.6279 946.467 90.6736 955.422 79.6279 955.422H33C21.9543 955.422 13 946.467 13 935.422V888.794ZM33 975.11C21.9543 975.11 13 984.064 13 995.11V1041.74C13 1052.78 21.9543 1061.74 33 1061.74H79.6279C90.6736 1061.74 99.6279 1052.78 99.6279 1041.74V995.11C99.6279 984.064 90.6736 975.11 79.6279 975.11H33ZM119.312 38.2656C119.312 27.2199 128.267 18.2656 139.312 18.2656H185.94C196.986 18.2656 205.94 27.2199 205.94 38.2656V84.8935C205.94 95.9392 196.986 104.893 185.94 104.893H139.312C128.267 104.893 119.312 95.9392 119.312 84.8935V38.2656ZM119.312 144.582C119.312 133.536 128.267 124.582 139.312 124.582H185.94C196.986 124.582 205.94 133.536 205.94 144.582V191.21C205.94 202.255 196.986 211.21 185.94 211.21H139.312C128.267 211.21 119.312 202.255 119.312 191.21V144.582ZM139.312 230.898C128.267 230.898 119.312 239.852 119.312 250.898V297.526C119.312 308.571 128.267 317.526 139.312 317.526H185.94C196.986 317.526 205.94 308.571 205.94 297.526V250.898C205.94 239.852 196.986 230.898 185.94 230.898H139.312ZM119.312 357.214C119.312 346.168 128.267 337.214 139.312 337.214H185.94C196.986 337.214 205.94 346.168 205.94 357.214V403.842C205.94 414.887 196.986 423.842 185.94 423.842H139.312C128.267 423.842 119.312 414.887 119.312 403.842V357.214ZM139.312 443.53C128.267 443.53 119.312 452.484 119.312 463.53V510.158C119.312 521.203 128.267 530.158 139.312 530.158H185.94C196.986 530.158 205.94 521.203 205.94 510.158V463.53C205.94 452.484 196.986 443.53 185.94 443.53H139.312ZM119.312 569.846C119.312 558.8 128.267 549.846 139.312 549.846H185.94C196.986 549.846 205.94 558.8 205.94 569.846V616.474C205.94 627.519 196.986 636.474 185.94 636.474H139.312C128.267 636.474 119.312 627.519 119.312 616.474V569.846ZM139.312 656.162C128.267 656.162 119.312 665.116 119.312 676.162V722.79C119.312 733.835 128.267 742.79 139.312 742.79H185.94C196.986 742.79 205.94 733.835 205.94 722.79V676.162C205.94 665.116 196.986 656.162 185.94 656.162H139.312ZM119.312 782.478C119.312 771.432 128.267 762.478 139.312 762.478H185.94C196.986 762.478 205.94 771.432 205.94 782.478V829.106C205.94 840.151 196.986 849.106 185.94 849.106H139.312C128.267 849.106 119.312 840.151 119.312 829.106V782.478ZM139.312 868.794C128.267 868.794 119.312 877.748 119.312 888.794V935.422C119.312 946.467 128.267 955.422 139.312 955.422H185.94C196.986 955.422 205.94 946.467 205.94 935.422V888.794C205.94 877.748 196.986 868.794 185.94 868.794H139.312ZM119.312 995.11C119.312 984.064 128.267 975.11 139.312 975.11H185.94C196.986 975.11 205.94 984.064 205.94 995.11V1041.74C205.94 1052.78 196.986 1061.74 185.94 1061.74H139.312C128.267 1061.74 119.312 1052.78 119.312 1041.74V995.11ZM245.633 18.2656C234.587 18.2656 225.633 27.2199 225.633 38.2656V84.8935C225.633 95.9392 234.587 104.893 245.633 104.893H292.261C303.306 104.893 312.261 95.9392 312.261 84.8935V38.2656C312.261 27.2199 303.306 18.2656 292.261 18.2656H245.633ZM245.633 124.582C234.587 124.582 225.633 133.536 225.633 144.582V191.21C225.633 202.255 234.587 211.21 245.633 211.21H292.261C303.306 211.21 312.261 202.255 312.261 191.21V144.582C312.261 133.536 303.306 124.582 292.261 124.582H245.633ZM225.633 250.898C225.633 239.852 234.587 230.898 245.633 230.898H292.261C303.306 230.898 312.261 239.852 312.261 250.898V297.526C312.261 308.571 303.306 317.526 292.261 317.526H245.633C234.587 317.526 225.633 308.571 225.633 297.526V250.898ZM245.633 337.214C234.587 337.214 225.633 346.168 225.633 357.214V403.842C225.633 414.887 234.587 423.842 245.633 423.842H292.261C303.306 423.842 312.261 414.887 312.261 403.842V357.214C312.261 346.168 303.306 337.214 292.261 337.214H245.633ZM225.633 463.53C225.633 452.484 234.587 443.53 245.633 443.53H292.261C303.306 443.53 312.261 452.484 312.261 463.53V510.158C312.261 521.203 303.306 530.158 292.261 530.158H245.633C234.587 530.158 225.633 521.203 225.633 510.158V463.53ZM245.633 549.846C234.587 549.846 225.633 558.8 225.633 569.846V616.474C225.633 627.519 234.587 636.474 245.633 636.474H292.261C303.306 636.474 312.261 627.519 312.261 616.474V569.846C312.261 558.8 303.306 549.846 292.261 549.846H245.633ZM225.633 676.162C225.633 665.116 234.587 656.162 245.633 656.162H292.261C303.306 656.162 312.261 665.116 312.261 676.162V722.79C312.261 733.835 303.306 742.79 292.261 742.79H245.633C234.587 742.79 225.633 733.835 225.633 722.79V676.162ZM245.633 762.478C234.587 762.478 225.633 771.432 225.633 782.478V829.106C225.633 840.151 234.587 849.106 245.633 849.106H292.261C303.306 849.106 312.261 840.151 312.261 829.106V782.478C312.261 771.432 303.306 762.478 292.261 762.478H245.633ZM225.633 888.794C225.633 877.748 234.587 868.794 245.633 868.794H292.261C303.306 868.794 312.261 877.748 312.261 888.794V935.422C312.261 946.467 303.306 955.422 292.261 955.422H245.633C234.587 955.422 225.633 946.467 225.633 935.422V888.794ZM245.633 975.11C234.587 975.11 225.633 984.064 225.633 995.11V1041.74C225.633 1052.78 234.587 1061.74 245.633 1061.74H292.261C303.306 1061.74 312.261 1052.78 312.261 1041.74V995.11C312.261 984.064 303.306 975.11 292.261 975.11H245.633ZM331.945 38.2656C331.945 27.2199 340.9 18.2656 351.945 18.2656H398.573C409.619 18.2656 418.573 27.2199 418.573 38.2656V84.8935C418.573 95.9392 409.619 104.893 398.573 104.893H351.945C340.9 104.893 331.945 95.9392 331.945 84.8935V38.2656ZM331.945 144.582C331.945 133.536 340.9 124.582 351.945 124.582H398.573C409.619 124.582 418.573 133.536 418.573 144.582V191.21C418.573 202.255 409.619 211.21 398.573 211.21H351.945C340.9 211.21 331.945 202.255 331.945 191.21V144.582ZM351.945 230.898C340.9 230.898 331.945 239.852 331.945 250.898V297.526C331.945 308.571 340.9 317.526 351.945 317.526H398.573C409.619 317.526 418.573 308.571 418.573 297.526V250.898C418.573 239.852 409.619 230.898 398.573 230.898H351.945ZM331.945 357.214C331.945 346.168 340.9 337.214 351.945 337.214H398.573C409.619 337.214 418.573 346.168 418.573 357.214V403.842C418.573 414.887 409.619 423.842 398.573 423.842H351.945C340.9 423.842 331.945 414.887 331.945 403.842V357.214ZM351.945 443.53C340.9 443.53 331.945 452.484 331.945 463.53V510.158C331.945 521.203 340.9 530.158 351.945 530.158H398.573C409.619 530.158 418.573 521.203 418.573 510.158V463.53C418.573 452.484 409.619 443.53 398.573 443.53H351.945ZM331.945 569.846C331.945 558.8 340.9 549.846 351.945 549.846H398.573C409.619 549.846 418.573 558.8 418.573 569.846V616.474C418.573 627.519 409.619 636.474 398.573 636.474H351.945C340.9 636.474 331.945 627.519 331.945 616.474V569.846ZM351.945 656.162C340.9 656.162 331.945 665.116 331.945 676.162V722.79C331.945 733.835 340.9 742.79 351.945 742.79H398.573C409.619 742.79 418.573 733.835 418.573 722.79V676.162C418.573 665.116 409.619 656.162 398.573 656.162H351.945ZM331.945 782.478C331.945 771.432 340.9 762.478 351.945 762.478H398.573C409.619 762.478 418.573 771.432 418.573 782.478V829.106C418.573 840.151 409.619 849.106 398.573 849.106H351.945C340.9 849.106 331.945 840.151 331.945 829.106V782.478ZM351.945 868.794C340.9 868.794 331.945 877.748 331.945 888.794V935.422C331.945 946.467 340.9 955.422 351.945 955.422H398.573C409.619 955.422 418.573 946.467 418.573 935.422V888.794C418.573 877.748 409.619 868.794 398.573 868.794H351.945ZM331.945 995.11C331.945 984.064 340.9 975.11 351.945 975.11H398.573C409.619 975.11 418.573 984.064 418.573 995.11V1041.74C418.573 1052.78 409.619 1061.74 398.573 1061.74H351.945C340.9 1061.74 331.945 1052.78 331.945 1041.74V995.11ZM458.266 18.2656C447.22 18.2656 438.266 27.2199 438.266 38.2656V84.8935C438.266 95.9392 447.22 104.893 458.266 104.893H504.893C515.939 104.893 524.893 95.9392 524.893 84.8935V38.2656C524.893 27.2199 515.939 18.2656 504.893 18.2656H458.266ZM458.266 124.582C447.22 124.582 438.266 133.536 438.266 144.582V191.21C438.266 202.255 447.22 211.21 458.266 211.21H504.893C515.939 211.21 524.893 202.255 524.893 191.21V144.582C524.893 133.536 515.939 124.582 504.893 124.582H458.266ZM438.266 250.898C438.266 239.852 447.22 230.898 458.266 230.898H504.893C515.939 230.898 524.893 239.852 524.893 250.898V297.526C524.893 308.571 515.939 317.526 504.893 317.526H458.266C447.22 317.526 438.266 308.571 438.266 297.526V250.898ZM458.266 337.214C447.22 337.214 438.266 346.168 438.266 357.214V403.842C438.266 414.887 447.22 423.842 458.266 423.842H504.893C515.939 423.842 524.893 414.887 524.893 403.842V357.214C524.893 346.168 515.939 337.214 504.893 337.214H458.266ZM438.266 463.53C438.266 452.484 447.22 443.53 458.266 443.53H504.893C515.939 443.53 524.893 452.484 524.893 463.53V510.158C524.893 521.203 515.939 530.158 504.893 530.158H458.266C447.22 530.158 438.266 521.203 438.266 510.158V463.53ZM458.266 549.846C447.22 549.846 438.266 558.8 438.266 569.846V616.474C438.266 627.519 447.22 636.474 458.266 636.474H504.893C515.939 636.474 524.893 627.519 524.893 616.474V569.846C524.893 558.8 515.939 549.846 504.893 549.846H458.266ZM438.266 676.162C438.266 665.116 447.22 656.162 458.266 656.162H504.893C515.939 656.162 524.893 665.116 524.893 676.162V722.79C524.893 733.835 515.939 742.79 504.893 742.79H458.266C447.22 742.79 438.266 733.835 438.266 722.79V676.162ZM458.266 762.478C447.22 762.478 438.266 771.432 438.266 782.478V829.106C438.266 840.151 447.22 849.106 458.266 849.106H504.893C515.939 849.106 524.893 840.151 524.893 829.106V782.478C524.893 771.432 515.939 762.478 504.893 762.478H458.266ZM438.266 888.794C438.266 877.748 447.22 868.794 458.266 868.794H504.893C515.939 868.794 524.893 877.748 524.893 888.794V935.422C524.893 946.467 515.939 955.422 504.893 955.422H458.266C447.22 955.422 438.266 946.467 438.266 935.422V888.794ZM458.266 975.11C447.22 975.11 438.266 984.064 438.266 995.11V1041.74C438.266 1052.78 447.22 1061.74 458.266 1061.74H504.893C515.939 1061.74 524.893 1052.78 524.893 1041.74V995.11C524.893 984.064 515.939 975.11 504.893 975.11H458.266ZM544.578 38.2656C544.578 27.2199 553.532 18.2656 564.578 18.2656H611.206C622.252 18.2656 631.206 27.2199 631.206 38.2656V84.8935C631.206 95.9392 622.252 104.893 611.206 104.893H564.578C553.532 104.893 544.578 95.9392 544.578 84.8935V38.2656ZM544.578 144.582C544.578 133.536 553.532 124.582 564.578 124.582H611.206C622.252 124.582 631.206 133.536 631.206 144.582V191.21C631.206 202.255 622.252 211.21 611.206 211.21H564.578C553.532 211.21 544.578 202.255 544.578 191.21V144.582ZM564.578 230.898C553.532 230.898 544.578 239.852 544.578 250.898V297.526C544.578 308.571 553.532 317.526 564.578 317.526H611.206C622.252 317.526 631.206 308.571 631.206 297.526V250.898C631.206 239.852 622.252 230.898 611.206 230.898H564.578ZM544.578 357.214C544.578 346.168 553.532 337.214 564.578 337.214H611.206C622.252 337.214 631.206 346.168 631.206 357.214V403.842C631.206 414.887 622.252 423.842 611.206 423.842H564.578C553.532 423.842 544.578 414.887 544.578 403.842V357.214ZM564.578 443.53C553.532 443.53 544.578 452.484 544.578 463.53V510.158C544.578 521.203 553.532 530.158 564.578 530.158H611.206C622.252 530.158 631.206 521.203 631.206 510.158V463.53C631.206 452.484 622.252 443.53 611.206 443.53H564.578ZM544.578 569.846C544.578 558.8 553.532 549.846 564.578 549.846H611.206C622.252 549.846 631.206 558.8 631.206 569.846V616.474C631.206 627.519 622.252 636.474 611.206 636.474H564.578C553.532 636.474 544.578 627.519 544.578 616.474V569.846ZM564.578 656.162C553.532 656.162 544.578 665.116 544.578 676.162V722.79C544.578 733.835 553.532 742.79 564.578 742.79H611.206C622.252 742.79 631.206 733.835 631.206 722.79V676.162C631.206 665.116 622.252 656.162 611.206 656.162H564.578ZM544.578 782.478C544.578 771.432 553.532 762.478 564.578 762.478H611.206C622.252 762.478 631.206 771.432 631.206 782.478V829.106C631.206 840.151 622.252 849.106 611.206 849.106H564.578C553.532 849.106 544.578 840.151 544.578 829.106V782.478ZM564.578 868.794C553.532 868.794 544.578 877.748 544.578 888.794V935.422C544.578 946.467 553.532 955.422 564.578 955.422H611.206C622.252 955.422 631.206 946.467 631.206 935.422V888.794C631.206 877.748 622.252 868.794 611.206 868.794H564.578ZM544.578 995.11C544.578 984.064 553.532 975.11 564.578 975.11H611.206C622.252 975.11 631.206 984.064 631.206 995.11V1041.74C631.206 1052.78 622.252 1061.74 611.206 1061.74H564.578C553.532 1061.74 544.578 1052.78 544.578 1041.74V995.11ZM670.898 18.2656C659.853 18.2656 650.898 27.2199 650.898 38.2656V84.8935C650.898 95.9392 659.853 104.893 670.898 104.893H717.526C728.572 104.893 737.526 95.9392 737.526 84.8935V38.2656C737.526 27.2199 728.572 18.2656 717.526 18.2656H670.898ZM670.898 124.582C659.853 124.582 650.898 133.536 650.898 144.582V191.21C650.898 202.255 659.853 211.21 670.898 211.21H717.526C728.572 211.21 737.526 202.255 737.526 191.21V144.582C737.526 133.536 728.572 124.582 717.526 124.582H670.898ZM650.898 250.898C650.898 239.852 659.853 230.898 670.898 230.898H717.526C728.572 230.898 737.526 239.852 737.526 250.898V297.526C737.526 308.571 728.572 317.526 717.526 317.526H670.898C659.853 317.526 650.898 308.571 650.898 297.526V250.898ZM670.898 337.214C659.853 337.214 650.898 346.168 650.898 357.214V403.842C650.898 414.887 659.853 423.842 670.898 423.842H717.526C728.572 423.842 737.526 414.887 737.526 403.842V357.214C737.526 346.168 728.572 337.214 717.526 337.214H670.898ZM650.898 463.53C650.898 452.484 659.853 443.53 670.898 443.53H717.526C728.572 443.53 737.526 452.484 737.526 463.53V510.158C737.526 521.203 728.572 530.158 717.526 530.158H670.898C659.853 530.158 650.898 521.203 650.898 510.158V463.53ZM670.898 549.846C659.853 549.846 650.898 558.8 650.898 569.846V616.474C650.898 627.519 659.853 636.474 670.898 636.474H717.526C728.572 636.474 737.526 627.519 737.526 616.474V569.846C737.526 558.8 728.572 549.846 717.526 549.846H670.898ZM650.898 676.162C650.898 665.116 659.853 656.162 670.898 656.162H717.526C728.572 656.162 737.526 665.116 737.526 676.162V722.79C737.526 733.835 728.572 742.79 717.526 742.79H670.898C659.853 742.79 650.898 733.835 650.898 722.79V676.162ZM670.898 762.478C659.853 762.478 650.898 771.432 650.898 782.478V829.106C650.898 840.151 659.853 849.106 670.898 849.106H717.526C728.572 849.106 737.526 840.151 737.526 829.106V782.478C737.526 771.432 728.572 762.478 717.526 762.478H670.898ZM650.898 888.794C650.898 877.748 659.853 868.794 670.898 868.794H717.526C728.572 868.794 737.526 877.748 737.526 888.794V935.422C737.526 946.467 728.572 955.422 717.526 955.422H670.898C659.853 955.422 650.898 946.467 650.898 935.422V888.794ZM670.898 975.11C659.853 975.11 650.898 984.064 650.898 995.11V1041.74C650.898 1052.78 659.853 1061.74 670.898 1061.74H717.526C728.572 1061.74 737.526 1052.78 737.526 1041.74V995.11C737.526 984.064 728.572 975.11 717.526 975.11H670.898ZM757.211 38.2656C757.211 27.2199 766.165 18.2656 777.211 18.2656H823.839C834.885 18.2656 843.839 27.2199 843.839 38.2656V84.8935C843.839 95.9392 834.885 104.893 823.839 104.893H777.211C766.165 104.893 757.211 95.9392 757.211 84.8935V38.2656ZM757.211 144.582C757.211 133.536 766.165 124.582 777.211 124.582H823.839C834.885 124.582 843.839 133.536 843.839 144.582V191.21C843.839 202.255 834.885 211.21 823.839 211.21H777.211C766.165 211.21 757.211 202.255 757.211 191.21V144.582ZM777.211 230.898C766.165 230.898 757.211 239.852 757.211 250.898V297.526C757.211 308.571 766.165 317.526 777.211 317.526H823.839C834.885 317.526 843.839 308.571 843.839 297.526V250.898C843.839 239.852 834.885 230.898 823.839 230.898H777.211ZM757.211 357.214C757.211 346.168 766.165 337.214 777.211 337.214H823.839C834.885 337.214 843.839 346.168 843.839 357.214V403.842C843.839 414.887 834.885 423.842 823.839 423.842H777.211C766.165 423.842 757.211 414.887 757.211 403.842V357.214ZM777.211 443.53C766.165 443.53 757.211 452.484 757.211 463.53V510.158C757.211 521.203 766.165 530.158 777.211 530.158H823.839C834.885 530.158 843.839 521.203 843.839 510.158V463.53C843.839 452.484 834.885 443.53 823.839 443.53H777.211ZM757.211 569.846C757.211 558.8 766.165 549.846 777.211 549.846H823.839C834.885 549.846 843.839 558.8 843.839 569.846V616.474C843.839 627.519 834.885 636.474 823.839 636.474H777.211C766.165 636.474 757.211 627.519 757.211 616.474V569.846ZM777.211 656.162C766.165 656.162 757.211 665.116 757.211 676.162V722.79C757.211 733.835 766.165 742.79 777.211 742.79H823.839C834.885 742.79 843.839 733.835 843.839 722.79V676.162C843.839 665.116 834.885 656.162 823.839 656.162H777.211ZM757.211 782.478C757.211 771.432 766.165 762.478 777.211 762.478H823.839C834.885 762.478 843.839 771.432 843.839 782.478V829.106C843.839 840.151 834.885 849.106 823.839 849.106H777.211C766.165 849.106 757.211 840.151 757.211 829.106V782.478ZM777.211 868.794C766.165 868.794 757.211 877.748 757.211 888.794V935.422C757.211 946.467 766.165 955.422 777.211 955.422H823.839C834.885 955.422 843.839 946.467 843.839 935.422V888.794C843.839 877.748 834.885 868.794 823.839 868.794H777.211ZM757.211 995.11C757.211 984.064 766.165 975.11 777.211 975.11H823.839C834.885 975.11 843.839 984.064 843.839 995.11V1041.74C843.839 1052.78 834.885 1061.74 823.839 1061.74H777.211C766.165 1061.74 757.211 1052.78 757.211 1041.74V995.11ZM883.531 18.2656C872.486 18.2656 863.531 27.2199 863.531 38.2656V84.8935C863.531 95.9392 872.486 104.893 883.531 104.893H930.159C941.205 104.893 950.159 95.9392 950.159 84.8935V38.2656C950.159 27.2199 941.205 18.2656 930.159 18.2656H883.531ZM883.531 124.582C872.486 124.582 863.531 133.536 863.531 144.582V191.21C863.531 202.255 872.486 211.21 883.531 211.21H930.159C941.205 211.21 950.159 202.255 950.159 191.21V144.582C950.159 133.536 941.205 124.582 930.159 124.582H883.531ZM863.531 250.898C863.531 239.852 872.486 230.898 883.531 230.898H930.159C941.205 230.898 950.159 239.852 950.159 250.898V297.526C950.159 308.571 941.205 317.526 930.159 317.526H883.531C872.486 317.526 863.531 308.571 863.531 297.526V250.898ZM883.531 337.214C872.486 337.214 863.531 346.168 863.531 357.214V403.842C863.531 414.887 872.486 423.842 883.531 423.842H930.159C941.205 423.842 950.159 414.887 950.159 403.842V357.214C950.159 346.168 941.205 337.214 930.159 337.214H883.531ZM863.531 463.53C863.531 452.484 872.486 443.53 883.531 443.53H930.159C941.205 443.53 950.159 452.484 950.159 463.53V510.158C950.159 521.203 941.205 530.158 930.159 530.158H883.531C872.486 530.158 863.531 521.203 863.531 510.158V463.53ZM883.531 549.846C872.486 549.846 863.531 558.8 863.531 569.846V616.474C863.531 627.519 872.486 636.474 883.531 636.474H930.159C941.205 636.474 950.159 627.519 950.159 616.474V569.846C950.159 558.8 941.205 549.846 930.159 549.846H883.531ZM863.531 676.162C863.531 665.116 872.486 656.162 883.531 656.162H930.159C941.205 656.162 950.159 665.116 950.159 676.162V722.79C950.159 733.835 941.205 742.79 930.159 742.79H883.531C872.486 742.79 863.531 733.835 863.531 722.79V676.162ZM883.531 762.478C872.486 762.478 863.531 771.432 863.531 782.478V829.106C863.531 840.151 872.486 849.106 883.531 849.106H930.159C941.205 849.106 950.159 840.151 950.159 829.106V782.478C950.159 771.432 941.205 762.478 930.159 762.478H883.531ZM863.531 888.794C863.531 877.748 872.486 868.794 883.531 868.794H930.159C941.205 868.794 950.159 877.748 950.159 888.794V935.422C950.159 946.467 941.205 955.422 930.159 955.422H883.531C872.486 955.422 863.531 946.467 863.531 935.422V888.794ZM883.531 975.11C872.486 975.11 863.531 984.064 863.531 995.11V1041.74C863.531 1052.78 872.486 1061.74 883.531 1061.74H930.159C941.205 1061.74 950.159 1052.78 950.159 1041.74V995.11C950.159 984.064 941.205 975.11 930.159 975.11H883.531ZM969.844 38.2656C969.844 27.2199 978.798 18.2656 989.844 18.2656H1036.47C1047.52 18.2656 1056.47 27.2199 1056.47 38.2656V84.8935C1056.47 95.9392 1047.52 104.893 1036.47 104.893H989.844C978.798 104.893 969.844 95.9392 969.844 84.8935V38.2656ZM969.844 144.582C969.844 133.536 978.798 124.582 989.844 124.582H1036.47C1047.52 124.582 1056.47 133.536 1056.47 144.582V191.21C1056.47 202.255 1047.52 211.21 1036.47 211.21H989.844C978.798 211.21 969.844 202.255 969.844 191.21V144.582ZM989.844 230.898C978.798 230.898 969.844 239.852 969.844 250.898V297.526C969.844 308.571 978.798 317.526 989.844 317.526H1036.47C1047.52 317.526 1056.47 308.571 1056.47 297.526V250.898C1056.47 239.852 1047.52 230.898 1036.47 230.898H989.844ZM969.844 357.214C969.844 346.168 978.798 337.214 989.844 337.214H1036.47C1047.52 337.214 1056.47 346.168 1056.47 357.214V403.842C1056.47 414.887 1047.52 423.842 1036.47 423.842H989.844C978.798 423.842 969.844 414.887 969.844 403.842V357.214ZM989.844 443.53C978.798 443.53 969.844 452.484 969.844 463.53V510.158C969.844 521.203 978.798 530.158 989.844 530.158H1036.47C1047.52 530.158 1056.47 521.203 1056.47 510.158V463.53C1056.47 452.484 1047.52 443.53 1036.47 443.53H989.844ZM969.844 569.846C969.844 558.8 978.798 549.846 989.844 549.846H1036.47C1047.52 549.846 1056.47 558.8 1056.47 569.846V616.474C1056.47 627.519 1047.52 636.474 1036.47 636.474H989.844C978.798 636.474 969.844 627.519 969.844 616.474V569.846ZM989.844 656.162C978.798 656.162 969.844 665.116 969.844 676.162V722.79C969.844 733.835 978.798 742.79 989.844 742.79H1036.47C1047.52 742.79 1056.47 733.835 1056.47 722.79V676.162C1056.47 665.116 1047.52 656.162 1036.47 656.162H989.844ZM969.844 782.478C969.844 771.432 978.798 762.478 989.844 762.478H1036.47C1047.52 762.478 1056.47 771.432 1056.47 782.478V829.106C1056.47 840.151 1047.52 849.106 1036.47 849.106H989.844C978.798 849.106 969.844 840.151 969.844 829.106V782.478ZM989.844 868.794C978.798 868.794 969.844 877.748 969.844 888.794V935.422C969.844 946.467 978.798 955.422 989.844 955.422H1036.47C1047.52 955.422 1056.47 946.467 1056.47 935.422V888.794C1056.47 877.748 1047.52 868.794 1036.47 868.794H989.844ZM969.844 995.11C969.844 984.064 978.798 975.11 989.844 975.11H1036.47C1047.52 975.11 1056.47 984.064 1056.47 995.11V1041.74C1056.47 1052.78 1047.52 1061.74 1036.47 1061.74H989.844C978.798 1061.74 969.844 1052.78 969.844 1041.74V995.11ZM1096.16 18.2656C1085.11 18.2656 1076.16 27.2199 1076.16 38.2656V84.8935C1076.16 95.9392 1085.11 104.893 1096.16 104.893H1142.78C1153.83 104.893 1162.78 95.9392 1162.78 84.8935V38.2656C1162.78 27.2199 1153.83 18.2656 1142.78 18.2656H1096.16ZM1096.16 124.582C1085.11 124.582 1076.16 133.536 1076.16 144.582V191.21C1076.16 202.255 1085.11 211.21 1096.16 211.21H1142.78C1153.83 211.21 1162.78 202.255 1162.78 191.21V144.582C1162.78 133.536 1153.83 124.582 1142.78 124.582H1096.16ZM1076.16 250.898C1076.16 239.852 1085.11 230.898 1096.16 230.898H1142.78C1153.83 230.898 1162.78 239.852 1162.78 250.898V297.526C1162.78 308.571 1153.83 317.526 1142.78 317.526H1096.16C1085.11 317.526 1076.16 308.571 1076.16 297.526V250.898ZM1096.16 337.214C1085.11 337.214 1076.16 346.168 1076.16 357.214V403.842C1076.16 414.887 1085.11 423.842 1096.16 423.842H1142.78C1153.83 423.842 1162.78 414.887 1162.78 403.842V357.214C1162.78 346.168 1153.83 337.214 1142.78 337.214H1096.16ZM1076.16 463.53C1076.16 452.484 1085.11 443.53 1096.16 443.53H1142.78C1153.83 443.53 1162.78 452.484 1162.78 463.53V510.158C1162.78 521.203 1153.83 530.158 1142.78 530.158H1096.16C1085.11 530.158 1076.16 521.203 1076.16 510.158V463.53ZM1096.16 549.846C1085.11 549.846 1076.16 558.8 1076.16 569.846V616.474C1076.16 627.519 1085.11 636.474 1096.16 636.474H1142.78C1153.83 636.474 1162.78 627.519 1162.78 616.474V569.846C1162.78 558.8 1153.83 549.846 1142.78 549.846H1096.16ZM1076.16 676.162C1076.16 665.116 1085.11 656.162 1096.16 656.162H1142.78C1153.83 656.162 1162.78 665.116 1162.78 676.162V722.79C1162.78 733.835 1153.83 742.79 1142.78 742.79H1096.16C1085.11 742.79 1076.16 733.835 1076.16 722.79V676.162ZM1096.16 762.478C1085.11 762.478 1076.16 771.432 1076.16 782.478V829.106C1076.16 840.151 1085.11 849.106 1096.16 849.106H1142.78C1153.83 849.106 1162.78 840.151 1162.78 829.106V782.478C1162.78 771.432 1153.83 762.478 1142.78 762.478H1096.16ZM1076.16 888.794C1076.16 877.748 1085.11 868.794 1096.16 868.794H1142.78C1153.83 868.794 1162.78 877.748 1162.78 888.794V935.422C1162.78 946.467 1153.83 955.422 1142.78 955.422H1096.16C1085.11 955.422 1076.16 946.467 1076.16 935.422V888.794ZM1096.16 975.11C1085.11 975.11 1076.16 984.064 1076.16 995.11V1041.74C1076.16 1052.78 1085.11 1061.74 1096.16 1061.74H1142.78C1153.83 1061.74 1162.78 1052.78 1162.78 1041.74V995.11C1162.78 984.064 1153.83 975.11 1142.78 975.11H1096.16ZM1182.48 38.2656C1182.48 27.2199 1191.43 18.2656 1202.48 18.2656H1249.1C1260.15 18.2656 1269.1 27.2199 1269.1 38.2656V84.8935C1269.1 95.9392 1260.15 104.893 1249.1 104.893H1202.48C1191.43 104.893 1182.48 95.9392 1182.48 84.8935V38.2656ZM1182.48 144.582C1182.48 133.536 1191.43 124.582 1202.48 124.582H1249.1C1260.15 124.582 1269.1 133.536 1269.1 144.582V191.21C1269.1 202.255 1260.15 211.21 1249.1 211.21H1202.48C1191.43 211.21 1182.48 202.255 1182.48 191.21V144.582ZM1202.48 230.898C1191.43 230.898 1182.48 239.852 1182.48 250.898V297.526C1182.48 308.571 1191.43 317.526 1202.48 317.526H1249.1C1260.15 317.526 1269.1 308.571 1269.1 297.526V250.898C1269.1 239.852 1260.15 230.898 1249.1 230.898H1202.48ZM1182.48 357.214C1182.48 346.168 1191.43 337.214 1202.48 337.214H1249.1C1260.15 337.214 1269.1 346.168 1269.1 357.214V403.842C1269.1 414.887 1260.15 423.842 1249.1 423.842H1202.48C1191.43 423.842 1182.48 414.887 1182.48 403.842V357.214ZM1202.48 443.53C1191.43 443.53 1182.48 452.484 1182.48 463.53V510.158C1182.48 521.203 1191.43 530.158 1202.48 530.158H1249.1C1260.15 530.158 1269.1 521.203 1269.1 510.158V463.53C1269.1 452.484 1260.15 443.53 1249.1 443.53H1202.48ZM1182.48 569.846C1182.48 558.8 1191.43 549.846 1202.48 549.846H1249.1C1260.15 549.846 1269.1 558.8 1269.1 569.846V616.474C1269.1 627.519 1260.15 636.474 1249.1 636.474H1202.48C1191.43 636.474 1182.48 627.519 1182.48 616.474V569.846ZM1202.48 656.162C1191.43 656.162 1182.48 665.116 1182.48 676.162V722.79C1182.48 733.835 1191.43 742.79 1202.48 742.79H1249.1C1260.15 742.79 1269.1 733.835 1269.1 722.79V676.162C1269.1 665.116 1260.15 656.162 1249.1 656.162H1202.48ZM1182.48 782.478C1182.48 771.432 1191.43 762.478 1202.48 762.478H1249.1C1260.15 762.478 1269.1 771.432 1269.1 782.478V829.106C1269.1 840.151 1260.15 849.106 1249.1 849.106H1202.48C1191.43 849.106 1182.48 840.151 1182.48 829.106V782.478ZM1202.48 868.794C1191.43 868.794 1182.48 877.748 1182.48 888.794V935.422C1182.48 946.467 1191.43 955.422 1202.48 955.422H1249.1C1260.15 955.422 1269.1 946.467 1269.1 935.422V888.794C1269.1 877.748 1260.15 868.794 1249.1 868.794H1202.48ZM1182.48 995.11C1182.48 984.064 1191.43 975.11 1202.48 975.11H1249.1C1260.15 975.11 1269.1 984.064 1269.1 995.11V1041.74C1269.1 1052.78 1260.15 1061.74 1249.1 1061.74H1202.48C1191.43 1061.74 1182.48 1052.78 1182.48 1041.74V995.11ZM1308.79 18.2656C1297.74 18.2656 1288.79 27.2199 1288.79 38.2656V84.8935C1288.79 95.9392 1297.74 104.893 1308.79 104.893H1355.42C1366.46 104.893 1375.42 95.9392 1375.42 84.8935V38.2656C1375.42 27.2199 1366.46 18.2656 1355.42 18.2656H1308.79ZM1308.79 124.582C1297.74 124.582 1288.79 133.536 1288.79 144.582V191.21C1288.79 202.255 1297.74 211.21 1308.79 211.21H1355.42C1366.46 211.21 1375.42 202.255 1375.42 191.21V144.582C1375.42 133.536 1366.46 124.582 1355.42 124.582H1308.79ZM1288.79 250.898C1288.79 239.852 1297.74 230.898 1308.79 230.898H1355.42C1366.46 230.898 1375.42 239.852 1375.42 250.898V297.526C1375.42 308.571 1366.46 317.526 1355.42 317.526H1308.79C1297.74 317.526 1288.79 308.571 1288.79 297.526V250.898ZM1308.79 337.214C1297.74 337.214 1288.79 346.168 1288.79 357.214V403.842C1288.79 414.887 1297.74 423.842 1308.79 423.842H1355.42C1366.46 423.842 1375.42 414.887 1375.42 403.842V357.214C1375.42 346.168 1366.46 337.214 1355.42 337.214H1308.79ZM1288.79 463.53C1288.79 452.484 1297.74 443.53 1308.79 443.53H1355.42C1366.46 443.53 1375.42 452.484 1375.42 463.53V510.158C1375.42 521.203 1366.46 530.158 1355.42 530.158H1308.79C1297.74 530.158 1288.79 521.203 1288.79 510.158V463.53ZM1308.79 549.846C1297.74 549.846 1288.79 558.8 1288.79 569.846V616.474C1288.79 627.519 1297.74 636.474 1308.79 636.474H1355.42C1366.46 636.474 1375.42 627.519 1375.42 616.474V569.846C1375.42 558.8 1366.46 549.846 1355.42 549.846H1308.79ZM1288.79 676.162C1288.79 665.116 1297.74 656.162 1308.79 656.162H1355.42C1366.46 656.162 1375.42 665.116 1375.42 676.162V722.79C1375.42 733.835 1366.46 742.79 1355.42 742.79H1308.79C1297.74 742.79 1288.79 733.835 1288.79 722.79V676.162ZM1308.79 762.478C1297.74 762.478 1288.79 771.432 1288.79 782.478V829.106C1288.79 840.151 1297.74 849.106 1308.79 849.106H1355.42C1366.46 849.106 1375.42 840.151 1375.42 829.106V782.478C1375.42 771.432 1366.46 762.478 1355.42 762.478H1308.79ZM1288.79 888.794C1288.79 877.748 1297.74 868.794 1308.79 868.794H1355.42C1366.46 868.794 1375.42 877.748 1375.42 888.794V935.422C1375.42 946.467 1366.46 955.422 1355.42 955.422H1308.79C1297.74 955.422 1288.79 946.467 1288.79 935.422V888.794ZM1308.79 975.11C1297.74 975.11 1288.79 984.064 1288.79 995.11V1041.74C1288.79 1052.78 1297.74 1061.74 1308.79 1061.74H1355.42C1366.46 1061.74 1375.42 1052.78 1375.42 1041.74V995.11C1375.42 984.064 1366.46 975.11 1355.42 975.11H1308.79ZM1395.11 38.2656C1395.11 27.2199 1404.06 18.2656 1415.11 18.2656H1461.74C1472.78 18.2656 1481.74 27.2199 1481.74 38.2656V84.8935C1481.74 95.9392 1472.78 104.893 1461.74 104.893H1415.11C1404.06 104.893 1395.11 95.9392 1395.11 84.8935V38.2656ZM1395.11 144.582C1395.11 133.536 1404.06 124.582 1415.11 124.582H1461.74C1472.78 124.582 1481.74 133.536 1481.74 144.582V191.21C1481.74 202.255 1472.78 211.21 1461.74 211.21H1415.11C1404.06 211.21 1395.11 202.255 1395.11 191.21V144.582ZM1415.11 230.898C1404.06 230.898 1395.11 239.852 1395.11 250.898V297.526C1395.11 308.571 1404.06 317.526 1415.11 317.526H1461.74C1472.78 317.526 1481.74 308.571 1481.74 297.526V250.898C1481.74 239.852 1472.78 230.898 1461.74 230.898H1415.11ZM1395.11 357.214C1395.11 346.168 1404.06 337.214 1415.11 337.214H1461.74C1472.78 337.214 1481.74 346.168 1481.74 357.214V403.842C1481.74 414.887 1472.78 423.842 1461.74 423.842H1415.11C1404.06 423.842 1395.11 414.887 1395.11 403.842V357.214ZM1415.11 443.53C1404.06 443.53 1395.11 452.484 1395.11 463.53V510.158C1395.11 521.203 1404.06 530.158 1415.11 530.158H1461.74C1472.78 530.158 1481.74 521.203 1481.74 510.158V463.53C1481.74 452.484 1472.78 443.53 1461.74 443.53H1415.11ZM1395.11 569.846C1395.11 558.8 1404.06 549.846 1415.11 549.846H1461.74C1472.78 549.846 1481.74 558.8 1481.74 569.846V616.474C1481.74 627.519 1472.78 636.474 1461.74 636.474H1415.11C1404.06 636.474 1395.11 627.519 1395.11 616.474V569.846ZM1415.11 656.162C1404.06 656.162 1395.11 665.116 1395.11 676.162V722.79C1395.11 733.835 1404.06 742.79 1415.11 742.79H1461.74C1472.78 742.79 1481.74 733.835 1481.74 722.79V676.162C1481.74 665.116 1472.78 656.162 1461.74 656.162H1415.11ZM1395.11 782.478C1395.11 771.432 1404.06 762.478 1415.11 762.478H1461.74C1472.78 762.478 1481.74 771.432 1481.74 782.478V829.106C1481.74 840.151 1472.78 849.106 1461.74 849.106H1415.11C1404.06 849.106 1395.11 840.151 1395.11 829.106V782.478ZM1415.11 868.794C1404.06 868.794 1395.11 877.748 1395.11 888.794V935.422C1395.11 946.467 1404.06 955.422 1415.11 955.422H1461.74C1472.78 955.422 1481.74 946.467 1481.74 935.422V888.794C1481.74 877.748 1472.78 868.794 1461.74 868.794H1415.11ZM1395.11 995.11C1395.11 984.064 1404.06 975.11 1415.11 975.11H1461.74C1472.78 975.11 1481.74 984.064 1481.74 995.11V1041.74C1481.74 1052.78 1472.78 1061.74 1461.74 1061.74H1415.11C1404.06 1061.74 1395.11 1052.78 1395.11 1041.74V995.11ZM1521.42 18.2656C1510.38 18.2656 1501.42 27.2199 1501.42 38.2656V84.8935C1501.42 95.9392 1510.38 104.893 1521.42 104.893H1568.05C1579.1 104.893 1588.05 95.9392 1588.05 84.8935V38.2656C1588.05 27.2199 1579.1 18.2656 1568.05 18.2656H1521.42ZM1521.42 124.582C1510.38 124.582 1501.42 133.536 1501.42 144.582V191.21C1501.42 202.255 1510.38 211.21 1521.42 211.21H1568.05C1579.1 211.21 1588.05 202.255 1588.05 191.21V144.582C1588.05 133.536 1579.1 124.582 1568.05 124.582H1521.42ZM1501.42 250.898C1501.42 239.852 1510.38 230.898 1521.42 230.898H1568.05C1579.1 230.898 1588.05 239.852 1588.05 250.898V297.526C1588.05 308.571 1579.1 317.526 1568.05 317.526H1521.42C1510.38 317.526 1501.42 308.571 1501.42 297.526V250.898ZM1521.42 337.214C1510.38 337.214 1501.42 346.168 1501.42 357.214V403.842C1501.42 414.887 1510.38 423.842 1521.42 423.842H1568.05C1579.1 423.842 1588.05 414.887 1588.05 403.842V357.214C1588.05 346.168 1579.1 337.214 1568.05 337.214H1521.42ZM1501.42 463.53C1501.42 452.484 1510.38 443.53 1521.42 443.53H1568.05C1579.1 443.53 1588.05 452.484 1588.05 463.53V510.158C1588.05 521.203 1579.1 530.158 1568.05 530.158H1521.42C1510.38 530.158 1501.42 521.203 1501.42 510.158V463.53ZM1521.42 549.846C1510.38 549.846 1501.42 558.8 1501.42 569.846V616.474C1501.42 627.519 1510.38 636.474 1521.42 636.474H1568.05C1579.1 636.474 1588.05 627.519 1588.05 616.474V569.846C1588.05 558.8 1579.1 549.846 1568.05 549.846H1521.42ZM1501.42 676.162C1501.42 665.116 1510.38 656.162 1521.42 656.162H1568.05C1579.1 656.162 1588.05 665.116 1588.05 676.162V722.79C1588.05 733.835 1579.1 742.79 1568.05 742.79H1521.42C1510.38 742.79 1501.42 733.835 1501.42 722.79V676.162ZM1521.42 762.478C1510.38 762.478 1501.42 771.432 1501.42 782.478V829.106C1501.42 840.151 1510.38 849.106 1521.42 849.106H1568.05C1579.1 849.106 1588.05 840.151 1588.05 829.106V782.478C1588.05 771.432 1579.1 762.478 1568.05 762.478H1521.42ZM1501.42 888.794C1501.42 877.748 1510.38 868.794 1521.42 868.794H1568.05C1579.1 868.794 1588.05 877.748 1588.05 888.794V935.422C1588.05 946.467 1579.1 955.422 1568.05 955.422H1521.42C1510.38 955.422 1501.42 946.467 1501.42 935.422V888.794ZM1521.42 975.11C1510.38 975.11 1501.42 984.064 1501.42 995.11V1041.74C1501.42 1052.78 1510.38 1061.74 1521.42 1061.74H1568.05C1579.1 1061.74 1588.05 1052.78 1588.05 1041.74V995.11C1588.05 984.064 1579.1 975.11 1568.05 975.11H1521.42ZM1607.74 38.2656C1607.74 27.2199 1616.7 18.2656 1627.74 18.2656H1674.37C1685.42 18.2656 1694.37 27.2199 1694.37 38.2656V84.8935C1694.37 95.9392 1685.42 104.893 1674.37 104.893H1627.74C1616.7 104.893 1607.74 95.9392 1607.74 84.8935V38.2656ZM1607.74 144.582C1607.74 133.536 1616.7 124.582 1627.74 124.582H1674.37C1685.42 124.582 1694.37 133.536 1694.37 144.582V191.21C1694.37 202.255 1685.42 211.21 1674.37 211.21H1627.74C1616.7 211.21 1607.74 202.255 1607.74 191.21V144.582ZM1627.74 230.898C1616.7 230.898 1607.74 239.852 1607.74 250.898V297.526C1607.74 308.571 1616.7 317.526 1627.74 317.526H1674.37C1685.42 317.526 1694.37 308.571 1694.37 297.526V250.898C1694.37 239.852 1685.42 230.898 1674.37 230.898H1627.74ZM1607.74 357.214C1607.74 346.168 1616.7 337.214 1627.74 337.214H1674.37C1685.42 337.214 1694.37 346.168 1694.37 357.214V403.842C1694.37 414.887 1685.42 423.842 1674.37 423.842H1627.74C1616.7 423.842 1607.74 414.887 1607.74 403.842V357.214ZM1627.74 443.53C1616.7 443.53 1607.74 452.484 1607.74 463.53V510.158C1607.74 521.203 1616.7 530.158 1627.74 530.158H1674.37C1685.42 530.158 1694.37 521.203 1694.37 510.158V463.53C1694.37 452.484 1685.42 443.53 1674.37 443.53H1627.74ZM1607.74 569.846C1607.74 558.8 1616.7 549.846 1627.74 549.846H1674.37C1685.42 549.846 1694.37 558.8 1694.37 569.846V616.474C1694.37 627.519 1685.42 636.474 1674.37 636.474H1627.74C1616.7 636.474 1607.74 627.519 1607.74 616.474V569.846ZM1627.74 656.162C1616.7 656.162 1607.74 665.116 1607.74 676.162V722.79C1607.74 733.835 1616.7 742.79 1627.74 742.79H1674.37C1685.42 742.79 1694.37 733.835 1694.37 722.79V676.162C1694.37 665.116 1685.42 656.162 1674.37 656.162H1627.74ZM1607.74 782.478C1607.74 771.432 1616.7 762.478 1627.74 762.478H1674.37C1685.42 762.478 1694.37 771.432 1694.37 782.478V829.106C1694.37 840.151 1685.42 849.106 1674.37 849.106H1627.74C1616.7 849.106 1607.74 840.151 1607.74 829.106V782.478ZM1627.74 868.794C1616.7 868.794 1607.74 877.748 1607.74 888.794V935.422C1607.74 946.467 1616.7 955.422 1627.74 955.422H1674.37C1685.42 955.422 1694.37 946.467 1694.37 935.422V888.794C1694.37 877.748 1685.42 868.794 1674.37 868.794H1627.74ZM1607.74 995.11C1607.74 984.064 1616.7 975.11 1627.74 975.11H1674.37C1685.42 975.11 1694.37 984.064 1694.37 995.11V1041.74C1694.37 1052.78 1685.42 1061.74 1674.37 1061.74H1627.74C1616.7 1061.74 1607.74 1052.78 1607.74 1041.74V995.11ZM1734.05 18.2656C1723.01 18.2656 1714.05 27.2199 1714.05 38.2656V84.8935C1714.05 95.9392 1723.01 104.893 1734.05 104.893H1780.68C1791.73 104.893 1800.68 95.9392 1800.68 84.8935V38.2656C1800.68 27.2199 1791.73 18.2656 1780.68 18.2656H1734.05ZM1734.05 124.582C1723.01 124.582 1714.05 133.536 1714.05 144.582V191.21C1714.05 202.255 1723.01 211.21 1734.05 211.21H1780.68C1791.73 211.21 1800.68 202.255 1800.68 191.21V144.582C1800.68 133.536 1791.73 124.582 1780.68 124.582H1734.05ZM1714.05 250.898C1714.05 239.852 1723.01 230.898 1734.05 230.898H1780.68C1791.73 230.898 1800.68 239.852 1800.68 250.898V297.526C1800.68 308.571 1791.73 317.526 1780.68 317.526H1734.05C1723.01 317.526 1714.05 308.571 1714.05 297.526V250.898ZM1734.05 337.214C1723.01 337.214 1714.05 346.168 1714.05 357.214V403.842C1714.05 414.887 1723.01 423.842 1734.05 423.842H1780.68C1791.73 423.842 1800.68 414.887 1800.68 403.842V357.214C1800.68 346.168 1791.73 337.214 1780.68 337.214H1734.05ZM1714.05 463.53C1714.05 452.484 1723.01 443.53 1734.05 443.53H1780.68C1791.73 443.53 1800.68 452.484 1800.68 463.53V510.158C1800.68 521.203 1791.73 530.158 1780.68 530.158H1734.05C1723.01 530.158 1714.05 521.203 1714.05 510.158V463.53ZM1734.05 549.846C1723.01 549.846 1714.05 558.8 1714.05 569.846V616.474C1714.05 627.519 1723.01 636.474 1734.05 636.474H1780.68C1791.73 636.474 1800.68 627.519 1800.68 616.474V569.846C1800.68 558.8 1791.73 549.846 1780.68 549.846H1734.05ZM1714.05 676.162C1714.05 665.116 1723.01 656.162 1734.05 656.162H1780.68C1791.73 656.162 1800.68 665.116 1800.68 676.162V722.79C1800.68 733.835 1791.73 742.79 1780.68 742.79H1734.05C1723.01 742.79 1714.05 733.835 1714.05 722.79V676.162ZM1734.05 762.478C1723.01 762.478 1714.05 771.432 1714.05 782.478V829.106C1714.05 840.151 1723.01 849.106 1734.05 849.106H1780.68C1791.73 849.106 1800.68 840.151 1800.68 829.106V782.478C1800.68 771.432 1791.73 762.478 1780.68 762.478H1734.05ZM1714.05 888.794C1714.05 877.748 1723.01 868.794 1734.05 868.794H1780.68C1791.73 868.794 1800.68 877.748 1800.68 888.794V935.422C1800.68 946.467 1791.73 955.422 1780.68 955.422H1734.05C1723.01 955.422 1714.05 946.467 1714.05 935.422V888.794ZM1734.05 975.11C1723.01 975.11 1714.05 984.064 1714.05 995.11V1041.74C1714.05 1052.78 1723.01 1061.74 1734.05 1061.74H1780.68C1791.73 1061.74 1800.68 1052.78 1800.68 1041.74V995.11C1800.68 984.064 1791.73 975.11 1780.68 975.11H1734.05ZM1840.38 18.2656C1829.33 18.2656 1820.38 27.2199 1820.38 38.2656V84.8935C1820.38 95.9392 1829.33 104.893 1840.38 104.893H1887C1898.05 104.893 1907 95.9392 1907 84.8935V38.2656C1907 27.2199 1898.05 18.2656 1887 18.2656H1840.38ZM1840.38 124.582C1829.33 124.582 1820.38 133.536 1820.38 144.582V191.21C1820.38 202.255 1829.33 211.21 1840.38 211.21H1887C1898.05 211.21 1907 202.255 1907 191.21V144.582C1907 133.536 1898.05 124.582 1887 124.582H1840.38ZM1820.38 250.898C1820.38 239.852 1829.33 230.898 1840.38 230.898H1887C1898.05 230.898 1907 239.852 1907 250.898V297.526C1907 308.571 1898.05 317.526 1887 317.526H1840.38C1829.33 317.526 1820.38 308.571 1820.38 297.526V250.898ZM1840.38 337.214C1829.33 337.214 1820.38 346.168 1820.38 357.214V403.842C1820.38 414.887 1829.33 423.842 1840.38 423.842H1887C1898.05 423.842 1907 414.887 1907 403.842V357.214C1907 346.168 1898.05 337.214 1887 337.214H1840.38ZM1820.38 463.53C1820.38 452.484 1829.33 443.53 1840.38 443.53H1887C1898.05 443.53 1907 452.484 1907 463.53V510.158C1907 521.203 1898.05 530.158 1887 530.158H1840.38C1829.33 530.158 1820.38 521.203 1820.38 510.158V463.53ZM1840.38 549.846C1829.33 549.846 1820.38 558.8 1820.38 569.846V616.474C1820.38 627.519 1829.33 636.474 1840.38 636.474H1887C1898.05 636.474 1907 627.519 1907 616.474V569.846C1907 558.8 1898.05 549.846 1887 549.846H1840.38ZM1820.38 676.162C1820.38 665.116 1829.33 656.162 1840.38 656.162H1887C1898.05 656.162 1907 665.116 1907 676.162V722.79C1907 733.835 1898.05 742.79 1887 742.79H1840.38C1829.33 742.79 1820.38 733.835 1820.38 722.79V676.162ZM1840.38 762.478C1829.33 762.478 1820.38 771.432 1820.38 782.478V829.106C1820.38 840.151 1829.33 849.106 1840.38 849.106H1887C1898.05 849.106 1907 840.151 1907 829.106V782.478C1907 771.432 1898.05 762.478 1887 762.478H1840.38ZM1820.38 888.794C1820.38 877.748 1829.33 868.794 1840.38 868.794H1887C1898.05 868.794 1907 877.748 1907 888.794V935.422C1907 946.467 1898.05 955.422 1887 955.422H1840.38C1829.33 955.422 1820.38 946.467 1820.38 935.422V888.794ZM1840.38 975.11C1829.33 975.11 1820.38 984.064 1820.38 995.11V1041.74C1820.38 1052.78 1829.33 1061.74 1840.38 1061.74H1887C1898.05 1061.74 1907 1052.78 1907 1041.74V995.11C1907 984.064 1898.05 975.11 1887 975.11H1840.38Z" fill="white"/>
</svg>
