<svg width="638" height="347" viewBox="0 0 638 347" fill="none" xmlns="http://www.w3.org/2000/svg">
<path fill-rule="evenodd" clip-rule="evenodd" d="M409.495 204.27C409.313 206.197 409.774 206.89 410.05 207.304L410.052 207.307C410.066 207.328 410.08 207.349 410.093 207.369C410.115 207.403 410.135 207.434 410.153 207.465C410.497 208.055 411.583 208.33 411.882 208.33C412.214 208.333 412.485 208.342 412.732 208.35C413.308 208.368 413.75 208.382 414.524 208.307C422.754 207.517 442.281 190.427 447.482 185.019C454.734 177.478 461.821 168.651 469.068 159.625C496.301 125.707 525.792 88.9764 574.756 107.045C575.174 107.2 575.641 107.009 575.826 106.607L578.157 101.552C578.284 101.277 578.543 101.092 578.845 101.06C583.07 100.593 598.813 106.066 602.973 109.349C603.281 109.592 603.375 110.013 603.21 110.366C600.93 115.204 599.293 120.554 597.73 126.295C597.349 127.692 596.878 129.119 596.274 130.954C594.84 135.305 592.651 141.948 589.111 155.902C585.439 170.371 583.826 177.257 582.092 184.659L582.092 184.661C580.747 190.405 579.328 196.46 576.819 206.609L538.659 233.517C539.257 230.947 539.773 228.407 539.392 228.167C538.924 227.872 536.327 229.136 534.459 230.046C533.7 230.415 533.061 230.727 532.734 230.85C505.675 241.135 477.953 243.205 465.411 212.497C465.233 212.061 464.968 210.585 464.676 208.956L464.676 208.955L464.676 208.952L464.675 208.951C464.227 206.452 463.715 203.594 463.352 203.577C462.653 203.542 460.372 206.358 459.285 207.7C459.195 207.812 459.112 207.913 459.04 208.001C458.969 208.09 458.906 208.165 458.856 208.226C458.819 208.27 458.788 208.306 458.764 208.333C442.268 226.891 398.292 253.124 383.969 220.287C383.732 219.742 383.019 219.606 382.601 220.024C382.484 220.14 382.364 220.259 382.242 220.381C380.254 222.36 377.602 225.001 375.879 226.2C350.259 244.051 314.616 240.788 311.928 204.967C311.395 197.874 312.345 192.486 313.35 186.788L313.35 186.787L313.351 186.786L313.351 186.785C313.845 183.981 314.353 181.103 314.703 177.91C315.306 172.412 313.983 175.036 313.181 176.627C312.974 177.038 312.801 177.381 312.706 177.495L312.163 178.15C297.02 196.389 262.707 237.717 238.608 237.214C212.392 236.667 200.764 219.71 196.461 196.27C196.421 196.056 196.366 195.735 196.299 195.342L196.298 195.336C196.218 194.865 196.12 194.292 196.01 193.68L195.999 193.611C195.744 192.008 195.399 189.725 195.042 187.013C194.327 181.58 193.567 174.458 193.372 167.631C193.173 160.619 193.903 151.311 194.696 143.693C195.09 139.912 195.496 136.572 195.804 134.171C202.407 93.8434 231.538 12.9844 263.388 1.79703C274.614 -2.14641 289.779 0.575438 298.988 8.24523C328.483 32.8164 281.88 88.0603 264.548 108.202C262.667 110.389 257.219 116.114 250.741 122.922L250.74 122.923C241.39 132.748 229.895 144.829 223.874 151.786C224.332 146.646 224.805 141.165 225.859 134.421C227.235 125.608 227.692 120.512 230.59 112.076C231.278 110.073 232 108 232.5 107C232.935 106.558 233.476 105.824 233.776 105.5L233.859 105.41C233.898 105.368 233.936 105.328 233.971 105.289C248.326 89.862 277.966 51.0204 280.178 30.3894C280.21 30.0913 280.528 27.0617 277.749 26.3942C274.529 25.6197 272.334 26.4525 269.545 28.0953C256.581 35.7295 239.934 76.0971 235.105 90.4905C235.088 90.5427 235.07 90.5947 235.053 90.6466C235.022 90.7122 234.989 90.7821 234.954 90.8561C234.673 91.4589 234.27 92.3415 233.776 93.472C232.789 95.7326 231.44 98.9873 229.983 102.981C227.073 110.961 223.718 121.935 221.976 133.854C220.966 140.76 220.25 148.005 219.786 153.514C219.553 156.27 219.384 158.597 219.273 160.236C219.261 160.405 219.25 160.566 219.24 160.72C217.36 177.159 219.844 213.588 241.806 210.161C248.278 209.151 263.822 190.721 272.835 180.035C274.989 177.481 276.769 175.37 277.964 174.044C281.165 170.494 284.357 166.957 287.542 163.427L287.567 163.399L287.572 163.393L287.573 163.392C304.609 144.515 321.445 125.857 338.284 106.575C339.458 105.23 340.203 104.245 340.737 103.538C341.733 102.219 341.998 101.869 342.956 101.964C343.264 101.996 348.971 102.738 349.276 102.787C352.292 103.263 360.807 105.687 365.275 108.14C365.286 108.146 365.324 108.165 365.376 108.191C365.492 108.251 365.68 108.346 365.794 108.409C366.047 108.548 366.203 108.814 366.199 109.102V109.329C366.195 109.341 363.956 113.963 361.715 118.588C359.471 123.22 357.225 127.856 357.221 127.867C356.192 130.629 355.104 133.504 353.988 136.456C348.324 151.432 341.911 168.389 338.569 182.654L338.533 182.807L338.487 183.004C337.347 187.833 333.697 203.303 340.862 209.192C346.213 213.59 353.192 209.033 357.1 206.481C357.724 206.073 358.27 205.716 358.719 205.456C374.663 196.179 391.909 159.064 404.144 132.734C407.526 125.457 410.524 119.004 413.007 114.19C413.183 113.847 413.394 113.162 413.649 112.336C414.323 110.145 415.303 106.963 416.759 106.555C418.064 106.19 424.642 109.367 430.833 112.356C435.01 114.373 439.01 116.304 441.094 117.005C441.539 117.155 441.772 117.641 441.613 118.084C433.808 140.125 425.436 161.835 415.812 183.299C415.794 183.339 415.785 183.381 415.776 183.423C415.772 183.44 415.769 183.457 415.765 183.473C415.76 183.493 415.754 183.513 415.747 183.532C415.382 184.519 414.932 185.68 414.445 186.938L414.443 186.941C412.568 191.78 410.135 198.057 409.852 201.402L409.495 204.27ZM533.672 241.833L578.761 210.041C592.236 202.118 605.012 193.291 617.14 183.474C617.461 183.215 617.918 183.221 618.23 183.49L637.704 199.816C638.116 200.169 638.094 200.814 637.662 201.142L611.617 219.421L611.58 219.369L533.285 274.577C528.623 277.796 519.94 284.02 519.94 284.02C519.94 284.02 511.998 290.22 506.357 294.879C497.518 302.179 490.605 314.013 495.51 317.524C500.415 321.034 508.456 316.877 512.767 311.616C518.683 304.396 524.107 295.863 526.572 285.033L563.786 257.957C556.993 283.809 539.392 340.339 502.998 346.347C490.264 348.45 472.653 346.347 468.886 326.877C461.456 288.479 497.738 268.336 523.527 249.372C527.128 246.723 530.554 244.204 533.663 241.82L533.672 241.833ZM147.607 226.961C169.063 213.78 175.297 205.103 191.5 187.5C191.314 186.252 190.573 182.031 190.183 178.5C189.721 174.315 189.649 174.758 189.45 167.743C189.298 162.397 189.664 155.847 190.183 149.72C186.368 153.851 181.853 159.379 176.923 165.414C162.573 182.984 144.711 204.854 130.366 209.065C128.891 209.499 126.514 209.104 127.02 207.293C127.202 206.641 131.8 201.6 135.707 197.315L135.712 197.31C138.056 194.74 140.151 192.442 140.895 191.529C159.77 168.335 173.549 142.31 156.668 113.611C148.471 99.671 128.687 98.7313 114.75 103.55C109.399 105.403 103.612 109.901 98.3204 114.015C96.459 115.463 94.6585 116.862 92.96 118.082C92.4833 118.426 91.8121 118.193 91.65 117.629C91.3906 116.728 90.9625 115.681 90.7874 115.416C73.6307 89.7265 45.1701 106.34 28.516 123.205L28.4045 123.318C26.869 124.873 19.0845 132.753 18.8951 133.409C18.6746 134.164 18.5676 134.916 18.814 135.661C18.8627 135.804 18.9567 135.923 19.0702 136.021L35.9092 150.187C35.9837 150.249 36.0616 150.301 36.1491 150.333C37.3683 150.78 39.3172 149.844 40.4229 149.218C43.0185 147.755 46.5984 144.021 50.2681 140.193C53.8463 136.46 57.51 132.638 60.4299 130.745C61.7918 129.861 64.9437 128.02 66.3218 128.769C67.4994 129.406 63.8338 139.676 62.0496 144.674C61.628 145.855 61.3114 146.742 61.1887 147.138C43.4677 204.148 19.8898 276.8 1.38085 330.31C-1.10874 337.502 0.193436 338.301 1.95365 339.381C2.16948 339.514 2.39285 339.651 2.6163 339.804C7.31811 343.028 16.8093 346.891 22.9638 346.547C23.2329 346.531 23.5248 346.411 23.6188 346.158C28.1505 333.874 31.7739 324.082 34.8482 315.774L34.8492 315.771C44.619 289.368 48.8448 277.948 59.0608 249.151C59.9459 246.656 60.9796 243.645 62.152 240.23C73.7187 206.539 98.7857 133.525 127.883 128.788C127.932 128.779 127.984 128.775 128.032 128.775H129.569C133.379 128.775 134.852 130.583 135.886 134.248C136.314 135.765 136.109 140.85 136.067 141.469C134.507 163.76 124.617 174.958 112.875 188.251C108.142 193.611 103.107 199.311 98.1954 206.217C97.5578 207.114 96.9623 207.931 96.4074 208.692L96.4049 208.695L96.4004 208.701C92.5261 214.015 90.6337 216.611 90.2509 224.628C90.1018 227.784 91.7555 231.994 96.5805 234.307C105.932 238.792 126.563 239.43 147.607 226.961ZM560.923 130.025C525.559 124.643 485.992 171.514 492.451 204.144C493.119 207.517 495.58 213.829 504.452 212.873C509.235 212.358 518.969 210.767 530.701 205.955C539.602 202.306 547.041 197.893 547.041 197.893C547.211 197.79 548.957 191.718 549.218 190.811L549.219 190.809L549.249 190.703C549.801 188.857 550.351 187.021 550.899 185.194L550.938 185.063C555.597 169.524 560.073 154.597 563.786 139.208C564.347 136.881 564.58 135.475 564.263 132.309C564.113 130.806 561.454 130.106 560.919 130.025H560.923Z" fill="#385842"/>
</svg>
